%TF.GenerationSoftware,KiCad,Pcbnew,8.0.1*%
%TF.CreationDate,2024-03-28T21:01:30+03:00*%
%TF.ProjectId,esp32_board,65737033-325f-4626-9f61-72642e6b6963,rev?*%
%TF.SameCoordinates,Original*%
%TF.FileFunction,Legend,Top*%
%TF.FilePolarity,Positive*%
%FSLAX46Y46*%
G04 Gerber Fmt 4.6, Leading zero omitted, Abs format (unit mm)*
G04 Created by KiCad (PCBNEW 8.0.1) date 2024-03-28 21:01:30*
%MOMM*%
%LPD*%
G01*
G04 APERTURE LIST*
%ADD10C,0.150000*%
%ADD11C,0.100000*%
%ADD12C,0.120000*%
G04 APERTURE END LIST*
D10*
X146438095Y-89794819D02*
X146438095Y-90604342D01*
X146438095Y-90604342D02*
X146485714Y-90699580D01*
X146485714Y-90699580D02*
X146533333Y-90747200D01*
X146533333Y-90747200D02*
X146628571Y-90794819D01*
X146628571Y-90794819D02*
X146819047Y-90794819D01*
X146819047Y-90794819D02*
X146914285Y-90747200D01*
X146914285Y-90747200D02*
X146961904Y-90699580D01*
X146961904Y-90699580D02*
X147009523Y-90604342D01*
X147009523Y-90604342D02*
X147009523Y-89794819D01*
X148009523Y-90794819D02*
X147438095Y-90794819D01*
X147723809Y-90794819D02*
X147723809Y-89794819D01*
X147723809Y-89794819D02*
X147628571Y-89937676D01*
X147628571Y-89937676D02*
X147533333Y-90032914D01*
X147533333Y-90032914D02*
X147438095Y-90080533D01*
X147131009Y-122165237D02*
X147131009Y-121831904D01*
X147654819Y-121689047D02*
X147654819Y-122165237D01*
X147654819Y-122165237D02*
X146654819Y-122165237D01*
X146654819Y-122165237D02*
X146654819Y-121689047D01*
X147607200Y-121308094D02*
X147654819Y-121165237D01*
X147654819Y-121165237D02*
X147654819Y-120927142D01*
X147654819Y-120927142D02*
X147607200Y-120831904D01*
X147607200Y-120831904D02*
X147559580Y-120784285D01*
X147559580Y-120784285D02*
X147464342Y-120736666D01*
X147464342Y-120736666D02*
X147369104Y-120736666D01*
X147369104Y-120736666D02*
X147273866Y-120784285D01*
X147273866Y-120784285D02*
X147226247Y-120831904D01*
X147226247Y-120831904D02*
X147178628Y-120927142D01*
X147178628Y-120927142D02*
X147131009Y-121117618D01*
X147131009Y-121117618D02*
X147083390Y-121212856D01*
X147083390Y-121212856D02*
X147035771Y-121260475D01*
X147035771Y-121260475D02*
X146940533Y-121308094D01*
X146940533Y-121308094D02*
X146845295Y-121308094D01*
X146845295Y-121308094D02*
X146750057Y-121260475D01*
X146750057Y-121260475D02*
X146702438Y-121212856D01*
X146702438Y-121212856D02*
X146654819Y-121117618D01*
X146654819Y-121117618D02*
X146654819Y-120879523D01*
X146654819Y-120879523D02*
X146702438Y-120736666D01*
X147654819Y-120308094D02*
X146654819Y-120308094D01*
X146654819Y-120308094D02*
X146654819Y-119927142D01*
X146654819Y-119927142D02*
X146702438Y-119831904D01*
X146702438Y-119831904D02*
X146750057Y-119784285D01*
X146750057Y-119784285D02*
X146845295Y-119736666D01*
X146845295Y-119736666D02*
X146988152Y-119736666D01*
X146988152Y-119736666D02*
X147083390Y-119784285D01*
X147083390Y-119784285D02*
X147131009Y-119831904D01*
X147131009Y-119831904D02*
X147178628Y-119927142D01*
X147178628Y-119927142D02*
X147178628Y-120308094D01*
X146654819Y-119403332D02*
X146654819Y-118784285D01*
X146654819Y-118784285D02*
X147035771Y-119117618D01*
X147035771Y-119117618D02*
X147035771Y-118974761D01*
X147035771Y-118974761D02*
X147083390Y-118879523D01*
X147083390Y-118879523D02*
X147131009Y-118831904D01*
X147131009Y-118831904D02*
X147226247Y-118784285D01*
X147226247Y-118784285D02*
X147464342Y-118784285D01*
X147464342Y-118784285D02*
X147559580Y-118831904D01*
X147559580Y-118831904D02*
X147607200Y-118879523D01*
X147607200Y-118879523D02*
X147654819Y-118974761D01*
X147654819Y-118974761D02*
X147654819Y-119260475D01*
X147654819Y-119260475D02*
X147607200Y-119355713D01*
X147607200Y-119355713D02*
X147559580Y-119403332D01*
X146750057Y-118403332D02*
X146702438Y-118355713D01*
X146702438Y-118355713D02*
X146654819Y-118260475D01*
X146654819Y-118260475D02*
X146654819Y-118022380D01*
X146654819Y-118022380D02*
X146702438Y-117927142D01*
X146702438Y-117927142D02*
X146750057Y-117879523D01*
X146750057Y-117879523D02*
X146845295Y-117831904D01*
X146845295Y-117831904D02*
X146940533Y-117831904D01*
X146940533Y-117831904D02*
X147083390Y-117879523D01*
X147083390Y-117879523D02*
X147654819Y-118450951D01*
X147654819Y-118450951D02*
X147654819Y-117831904D01*
X147273866Y-117403332D02*
X147273866Y-116641428D01*
X147654819Y-116165237D02*
X146654819Y-116165237D01*
X146654819Y-116165237D02*
X146654819Y-115927142D01*
X146654819Y-115927142D02*
X146702438Y-115784285D01*
X146702438Y-115784285D02*
X146797676Y-115689047D01*
X146797676Y-115689047D02*
X146892914Y-115641428D01*
X146892914Y-115641428D02*
X147083390Y-115593809D01*
X147083390Y-115593809D02*
X147226247Y-115593809D01*
X147226247Y-115593809D02*
X147416723Y-115641428D01*
X147416723Y-115641428D02*
X147511961Y-115689047D01*
X147511961Y-115689047D02*
X147607200Y-115784285D01*
X147607200Y-115784285D02*
X147654819Y-115927142D01*
X147654819Y-115927142D02*
X147654819Y-116165237D01*
X147607200Y-114784285D02*
X147654819Y-114879523D01*
X147654819Y-114879523D02*
X147654819Y-115069999D01*
X147654819Y-115069999D02*
X147607200Y-115165237D01*
X147607200Y-115165237D02*
X147511961Y-115212856D01*
X147511961Y-115212856D02*
X147131009Y-115212856D01*
X147131009Y-115212856D02*
X147035771Y-115165237D01*
X147035771Y-115165237D02*
X146988152Y-115069999D01*
X146988152Y-115069999D02*
X146988152Y-114879523D01*
X146988152Y-114879523D02*
X147035771Y-114784285D01*
X147035771Y-114784285D02*
X147131009Y-114736666D01*
X147131009Y-114736666D02*
X147226247Y-114736666D01*
X147226247Y-114736666D02*
X147321485Y-115212856D01*
X146988152Y-114403332D02*
X147654819Y-114165237D01*
X147654819Y-114165237D02*
X146988152Y-113927142D01*
X147654819Y-113546189D02*
X146654819Y-113546189D01*
X147654819Y-112974761D02*
X147083390Y-113403332D01*
X146654819Y-112974761D02*
X147226247Y-113546189D01*
X147654819Y-112546189D02*
X146988152Y-112546189D01*
X146654819Y-112546189D02*
X146702438Y-112593808D01*
X146702438Y-112593808D02*
X146750057Y-112546189D01*
X146750057Y-112546189D02*
X146702438Y-112498570D01*
X146702438Y-112498570D02*
X146654819Y-112546189D01*
X146654819Y-112546189D02*
X146750057Y-112546189D01*
X146988152Y-112212856D02*
X146988152Y-111831904D01*
X146654819Y-112069999D02*
X147511961Y-112069999D01*
X147511961Y-112069999D02*
X147607200Y-112022380D01*
X147607200Y-112022380D02*
X147654819Y-111927142D01*
X147654819Y-111927142D02*
X147654819Y-111831904D01*
X147559580Y-110927142D02*
X147607200Y-110974761D01*
X147607200Y-110974761D02*
X147654819Y-111117618D01*
X147654819Y-111117618D02*
X147654819Y-111212856D01*
X147654819Y-111212856D02*
X147607200Y-111355713D01*
X147607200Y-111355713D02*
X147511961Y-111450951D01*
X147511961Y-111450951D02*
X147416723Y-111498570D01*
X147416723Y-111498570D02*
X147226247Y-111546189D01*
X147226247Y-111546189D02*
X147083390Y-111546189D01*
X147083390Y-111546189D02*
X146892914Y-111498570D01*
X146892914Y-111498570D02*
X146797676Y-111450951D01*
X146797676Y-111450951D02*
X146702438Y-111355713D01*
X146702438Y-111355713D02*
X146654819Y-111212856D01*
X146654819Y-111212856D02*
X146654819Y-111117618D01*
X146654819Y-111117618D02*
X146702438Y-110974761D01*
X146702438Y-110974761D02*
X146750057Y-110927142D01*
X157131315Y-138409366D02*
X157097982Y-138442700D01*
X157097982Y-138442700D02*
X156997982Y-138476033D01*
X156997982Y-138476033D02*
X156931315Y-138476033D01*
X156931315Y-138476033D02*
X156831315Y-138442700D01*
X156831315Y-138442700D02*
X156764649Y-138376033D01*
X156764649Y-138376033D02*
X156731315Y-138309366D01*
X156731315Y-138309366D02*
X156697982Y-138176033D01*
X156697982Y-138176033D02*
X156697982Y-138076033D01*
X156697982Y-138076033D02*
X156731315Y-137942700D01*
X156731315Y-137942700D02*
X156764649Y-137876033D01*
X156764649Y-137876033D02*
X156831315Y-137809366D01*
X156831315Y-137809366D02*
X156931315Y-137776033D01*
X156931315Y-137776033D02*
X156997982Y-137776033D01*
X156997982Y-137776033D02*
X157097982Y-137809366D01*
X157097982Y-137809366D02*
X157131315Y-137842700D01*
X157764649Y-138476033D02*
X157431315Y-138476033D01*
X157431315Y-138476033D02*
X157431315Y-137776033D01*
X157997982Y-138476033D02*
X157997982Y-137776033D01*
X158397982Y-138476033D02*
X158097982Y-138076033D01*
X158397982Y-137776033D02*
X157997982Y-138176033D01*
X151897983Y-99709366D02*
X151831316Y-99676033D01*
X151831316Y-99676033D02*
X151731316Y-99676033D01*
X151731316Y-99676033D02*
X151631316Y-99709366D01*
X151631316Y-99709366D02*
X151564650Y-99776033D01*
X151564650Y-99776033D02*
X151531316Y-99842700D01*
X151531316Y-99842700D02*
X151497983Y-99976033D01*
X151497983Y-99976033D02*
X151497983Y-100076033D01*
X151497983Y-100076033D02*
X151531316Y-100209366D01*
X151531316Y-100209366D02*
X151564650Y-100276033D01*
X151564650Y-100276033D02*
X151631316Y-100342700D01*
X151631316Y-100342700D02*
X151731316Y-100376033D01*
X151731316Y-100376033D02*
X151797983Y-100376033D01*
X151797983Y-100376033D02*
X151897983Y-100342700D01*
X151897983Y-100342700D02*
X151931316Y-100309366D01*
X151931316Y-100309366D02*
X151931316Y-100076033D01*
X151931316Y-100076033D02*
X151797983Y-100076033D01*
X152231316Y-100376033D02*
X152231316Y-99676033D01*
X152231316Y-99676033D02*
X152497983Y-99676033D01*
X152497983Y-99676033D02*
X152564650Y-99709366D01*
X152564650Y-99709366D02*
X152597983Y-99742700D01*
X152597983Y-99742700D02*
X152631316Y-99809366D01*
X152631316Y-99809366D02*
X152631316Y-99909366D01*
X152631316Y-99909366D02*
X152597983Y-99976033D01*
X152597983Y-99976033D02*
X152564650Y-100009366D01*
X152564650Y-100009366D02*
X152497983Y-100042700D01*
X152497983Y-100042700D02*
X152231316Y-100042700D01*
X152931316Y-100376033D02*
X152931316Y-99676033D01*
X153397983Y-99676033D02*
X153531316Y-99676033D01*
X153531316Y-99676033D02*
X153597983Y-99709366D01*
X153597983Y-99709366D02*
X153664649Y-99776033D01*
X153664649Y-99776033D02*
X153697983Y-99909366D01*
X153697983Y-99909366D02*
X153697983Y-100142700D01*
X153697983Y-100142700D02*
X153664649Y-100276033D01*
X153664649Y-100276033D02*
X153597983Y-100342700D01*
X153597983Y-100342700D02*
X153531316Y-100376033D01*
X153531316Y-100376033D02*
X153397983Y-100376033D01*
X153397983Y-100376033D02*
X153331316Y-100342700D01*
X153331316Y-100342700D02*
X153264649Y-100276033D01*
X153264649Y-100276033D02*
X153231316Y-100142700D01*
X153231316Y-100142700D02*
X153231316Y-99909366D01*
X153231316Y-99909366D02*
X153264649Y-99776033D01*
X153264649Y-99776033D02*
X153331316Y-99709366D01*
X153331316Y-99709366D02*
X153397983Y-99676033D01*
X154364649Y-100376033D02*
X153964649Y-100376033D01*
X154164649Y-100376033D02*
X154164649Y-99676033D01*
X154164649Y-99676033D02*
X154097982Y-99776033D01*
X154097982Y-99776033D02*
X154031316Y-99842700D01*
X154031316Y-99842700D02*
X153964649Y-99876033D01*
X155164649Y-99642700D02*
X154564649Y-100542700D01*
X155397982Y-99676033D02*
X155397982Y-100242700D01*
X155397982Y-100242700D02*
X155431316Y-100309366D01*
X155431316Y-100309366D02*
X155464649Y-100342700D01*
X155464649Y-100342700D02*
X155531316Y-100376033D01*
X155531316Y-100376033D02*
X155664649Y-100376033D01*
X155664649Y-100376033D02*
X155731316Y-100342700D01*
X155731316Y-100342700D02*
X155764649Y-100309366D01*
X155764649Y-100309366D02*
X155797982Y-100242700D01*
X155797982Y-100242700D02*
X155797982Y-99676033D01*
X156264649Y-99676033D02*
X156331315Y-99676033D01*
X156331315Y-99676033D02*
X156397982Y-99709366D01*
X156397982Y-99709366D02*
X156431315Y-99742700D01*
X156431315Y-99742700D02*
X156464649Y-99809366D01*
X156464649Y-99809366D02*
X156497982Y-99942700D01*
X156497982Y-99942700D02*
X156497982Y-100109366D01*
X156497982Y-100109366D02*
X156464649Y-100242700D01*
X156464649Y-100242700D02*
X156431315Y-100309366D01*
X156431315Y-100309366D02*
X156397982Y-100342700D01*
X156397982Y-100342700D02*
X156331315Y-100376033D01*
X156331315Y-100376033D02*
X156264649Y-100376033D01*
X156264649Y-100376033D02*
X156197982Y-100342700D01*
X156197982Y-100342700D02*
X156164649Y-100309366D01*
X156164649Y-100309366D02*
X156131315Y-100242700D01*
X156131315Y-100242700D02*
X156097982Y-100109366D01*
X156097982Y-100109366D02*
X156097982Y-99942700D01*
X156097982Y-99942700D02*
X156131315Y-99809366D01*
X156131315Y-99809366D02*
X156164649Y-99742700D01*
X156164649Y-99742700D02*
X156197982Y-99709366D01*
X156197982Y-99709366D02*
X156264649Y-99676033D01*
X156697982Y-99676033D02*
X157097982Y-99676033D01*
X156897982Y-100376033D02*
X156897982Y-99676033D01*
X157264649Y-99676033D02*
X157731315Y-100376033D01*
X157731315Y-99676033D02*
X157264649Y-100376033D01*
X157997982Y-100376033D02*
X157997982Y-99676033D01*
X157997982Y-99676033D02*
X158164649Y-99676033D01*
X158164649Y-99676033D02*
X158264649Y-99709366D01*
X158264649Y-99709366D02*
X158331316Y-99776033D01*
X158331316Y-99776033D02*
X158364649Y-99842700D01*
X158364649Y-99842700D02*
X158397982Y-99976033D01*
X158397982Y-99976033D02*
X158397982Y-100076033D01*
X158397982Y-100076033D02*
X158364649Y-100209366D01*
X158364649Y-100209366D02*
X158331316Y-100276033D01*
X158331316Y-100276033D02*
X158264649Y-100342700D01*
X158264649Y-100342700D02*
X158164649Y-100376033D01*
X158164649Y-100376033D02*
X157997982Y-100376033D01*
X151731316Y-102249366D02*
X151664649Y-102216033D01*
X151664649Y-102216033D02*
X151564649Y-102216033D01*
X151564649Y-102216033D02*
X151464649Y-102249366D01*
X151464649Y-102249366D02*
X151397983Y-102316033D01*
X151397983Y-102316033D02*
X151364649Y-102382700D01*
X151364649Y-102382700D02*
X151331316Y-102516033D01*
X151331316Y-102516033D02*
X151331316Y-102616033D01*
X151331316Y-102616033D02*
X151364649Y-102749366D01*
X151364649Y-102749366D02*
X151397983Y-102816033D01*
X151397983Y-102816033D02*
X151464649Y-102882700D01*
X151464649Y-102882700D02*
X151564649Y-102916033D01*
X151564649Y-102916033D02*
X151631316Y-102916033D01*
X151631316Y-102916033D02*
X151731316Y-102882700D01*
X151731316Y-102882700D02*
X151764649Y-102849366D01*
X151764649Y-102849366D02*
X151764649Y-102616033D01*
X151764649Y-102616033D02*
X151631316Y-102616033D01*
X152064649Y-102916033D02*
X152064649Y-102216033D01*
X152064649Y-102216033D02*
X152331316Y-102216033D01*
X152331316Y-102216033D02*
X152397983Y-102249366D01*
X152397983Y-102249366D02*
X152431316Y-102282700D01*
X152431316Y-102282700D02*
X152464649Y-102349366D01*
X152464649Y-102349366D02*
X152464649Y-102449366D01*
X152464649Y-102449366D02*
X152431316Y-102516033D01*
X152431316Y-102516033D02*
X152397983Y-102549366D01*
X152397983Y-102549366D02*
X152331316Y-102582700D01*
X152331316Y-102582700D02*
X152064649Y-102582700D01*
X152764649Y-102916033D02*
X152764649Y-102216033D01*
X153231316Y-102216033D02*
X153364649Y-102216033D01*
X153364649Y-102216033D02*
X153431316Y-102249366D01*
X153431316Y-102249366D02*
X153497982Y-102316033D01*
X153497982Y-102316033D02*
X153531316Y-102449366D01*
X153531316Y-102449366D02*
X153531316Y-102682700D01*
X153531316Y-102682700D02*
X153497982Y-102816033D01*
X153497982Y-102816033D02*
X153431316Y-102882700D01*
X153431316Y-102882700D02*
X153364649Y-102916033D01*
X153364649Y-102916033D02*
X153231316Y-102916033D01*
X153231316Y-102916033D02*
X153164649Y-102882700D01*
X153164649Y-102882700D02*
X153097982Y-102816033D01*
X153097982Y-102816033D02*
X153064649Y-102682700D01*
X153064649Y-102682700D02*
X153064649Y-102449366D01*
X153064649Y-102449366D02*
X153097982Y-102316033D01*
X153097982Y-102316033D02*
X153164649Y-102249366D01*
X153164649Y-102249366D02*
X153231316Y-102216033D01*
X153764649Y-102216033D02*
X154197982Y-102216033D01*
X154197982Y-102216033D02*
X153964649Y-102482700D01*
X153964649Y-102482700D02*
X154064649Y-102482700D01*
X154064649Y-102482700D02*
X154131315Y-102516033D01*
X154131315Y-102516033D02*
X154164649Y-102549366D01*
X154164649Y-102549366D02*
X154197982Y-102616033D01*
X154197982Y-102616033D02*
X154197982Y-102782700D01*
X154197982Y-102782700D02*
X154164649Y-102849366D01*
X154164649Y-102849366D02*
X154131315Y-102882700D01*
X154131315Y-102882700D02*
X154064649Y-102916033D01*
X154064649Y-102916033D02*
X153864649Y-102916033D01*
X153864649Y-102916033D02*
X153797982Y-102882700D01*
X153797982Y-102882700D02*
X153764649Y-102849366D01*
X154997982Y-102182700D02*
X154397982Y-103082700D01*
X155231315Y-102216033D02*
X155231315Y-102782700D01*
X155231315Y-102782700D02*
X155264649Y-102849366D01*
X155264649Y-102849366D02*
X155297982Y-102882700D01*
X155297982Y-102882700D02*
X155364649Y-102916033D01*
X155364649Y-102916033D02*
X155497982Y-102916033D01*
X155497982Y-102916033D02*
X155564649Y-102882700D01*
X155564649Y-102882700D02*
X155597982Y-102849366D01*
X155597982Y-102849366D02*
X155631315Y-102782700D01*
X155631315Y-102782700D02*
X155631315Y-102216033D01*
X156097982Y-102216033D02*
X156164648Y-102216033D01*
X156164648Y-102216033D02*
X156231315Y-102249366D01*
X156231315Y-102249366D02*
X156264648Y-102282700D01*
X156264648Y-102282700D02*
X156297982Y-102349366D01*
X156297982Y-102349366D02*
X156331315Y-102482700D01*
X156331315Y-102482700D02*
X156331315Y-102649366D01*
X156331315Y-102649366D02*
X156297982Y-102782700D01*
X156297982Y-102782700D02*
X156264648Y-102849366D01*
X156264648Y-102849366D02*
X156231315Y-102882700D01*
X156231315Y-102882700D02*
X156164648Y-102916033D01*
X156164648Y-102916033D02*
X156097982Y-102916033D01*
X156097982Y-102916033D02*
X156031315Y-102882700D01*
X156031315Y-102882700D02*
X155997982Y-102849366D01*
X155997982Y-102849366D02*
X155964648Y-102782700D01*
X155964648Y-102782700D02*
X155931315Y-102649366D01*
X155931315Y-102649366D02*
X155931315Y-102482700D01*
X155931315Y-102482700D02*
X155964648Y-102349366D01*
X155964648Y-102349366D02*
X155997982Y-102282700D01*
X155997982Y-102282700D02*
X156031315Y-102249366D01*
X156031315Y-102249366D02*
X156097982Y-102216033D01*
X157031315Y-102916033D02*
X156797982Y-102582700D01*
X156631315Y-102916033D02*
X156631315Y-102216033D01*
X156631315Y-102216033D02*
X156897982Y-102216033D01*
X156897982Y-102216033D02*
X156964649Y-102249366D01*
X156964649Y-102249366D02*
X156997982Y-102282700D01*
X156997982Y-102282700D02*
X157031315Y-102349366D01*
X157031315Y-102349366D02*
X157031315Y-102449366D01*
X157031315Y-102449366D02*
X156997982Y-102516033D01*
X156997982Y-102516033D02*
X156964649Y-102549366D01*
X156964649Y-102549366D02*
X156897982Y-102582700D01*
X156897982Y-102582700D02*
X156631315Y-102582700D01*
X157264649Y-102216033D02*
X157731315Y-102916033D01*
X157731315Y-102216033D02*
X157264649Y-102916033D01*
X157997982Y-102916033D02*
X157997982Y-102216033D01*
X157997982Y-102216033D02*
X158164649Y-102216033D01*
X158164649Y-102216033D02*
X158264649Y-102249366D01*
X158264649Y-102249366D02*
X158331316Y-102316033D01*
X158331316Y-102316033D02*
X158364649Y-102382700D01*
X158364649Y-102382700D02*
X158397982Y-102516033D01*
X158397982Y-102516033D02*
X158397982Y-102616033D01*
X158397982Y-102616033D02*
X158364649Y-102749366D01*
X158364649Y-102749366D02*
X158331316Y-102816033D01*
X158331316Y-102816033D02*
X158264649Y-102882700D01*
X158264649Y-102882700D02*
X158164649Y-102916033D01*
X158164649Y-102916033D02*
X157997982Y-102916033D01*
X155931316Y-125109366D02*
X155864649Y-125076033D01*
X155864649Y-125076033D02*
X155764649Y-125076033D01*
X155764649Y-125076033D02*
X155664649Y-125109366D01*
X155664649Y-125109366D02*
X155597983Y-125176033D01*
X155597983Y-125176033D02*
X155564649Y-125242700D01*
X155564649Y-125242700D02*
X155531316Y-125376033D01*
X155531316Y-125376033D02*
X155531316Y-125476033D01*
X155531316Y-125476033D02*
X155564649Y-125609366D01*
X155564649Y-125609366D02*
X155597983Y-125676033D01*
X155597983Y-125676033D02*
X155664649Y-125742700D01*
X155664649Y-125742700D02*
X155764649Y-125776033D01*
X155764649Y-125776033D02*
X155831316Y-125776033D01*
X155831316Y-125776033D02*
X155931316Y-125742700D01*
X155931316Y-125742700D02*
X155964649Y-125709366D01*
X155964649Y-125709366D02*
X155964649Y-125476033D01*
X155964649Y-125476033D02*
X155831316Y-125476033D01*
X156264649Y-125776033D02*
X156264649Y-125076033D01*
X156264649Y-125076033D02*
X156531316Y-125076033D01*
X156531316Y-125076033D02*
X156597983Y-125109366D01*
X156597983Y-125109366D02*
X156631316Y-125142700D01*
X156631316Y-125142700D02*
X156664649Y-125209366D01*
X156664649Y-125209366D02*
X156664649Y-125309366D01*
X156664649Y-125309366D02*
X156631316Y-125376033D01*
X156631316Y-125376033D02*
X156597983Y-125409366D01*
X156597983Y-125409366D02*
X156531316Y-125442700D01*
X156531316Y-125442700D02*
X156264649Y-125442700D01*
X156964649Y-125776033D02*
X156964649Y-125076033D01*
X157431316Y-125076033D02*
X157564649Y-125076033D01*
X157564649Y-125076033D02*
X157631316Y-125109366D01*
X157631316Y-125109366D02*
X157697982Y-125176033D01*
X157697982Y-125176033D02*
X157731316Y-125309366D01*
X157731316Y-125309366D02*
X157731316Y-125542700D01*
X157731316Y-125542700D02*
X157697982Y-125676033D01*
X157697982Y-125676033D02*
X157631316Y-125742700D01*
X157631316Y-125742700D02*
X157564649Y-125776033D01*
X157564649Y-125776033D02*
X157431316Y-125776033D01*
X157431316Y-125776033D02*
X157364649Y-125742700D01*
X157364649Y-125742700D02*
X157297982Y-125676033D01*
X157297982Y-125676033D02*
X157264649Y-125542700D01*
X157264649Y-125542700D02*
X157264649Y-125309366D01*
X157264649Y-125309366D02*
X157297982Y-125176033D01*
X157297982Y-125176033D02*
X157364649Y-125109366D01*
X157364649Y-125109366D02*
X157431316Y-125076033D01*
X158164649Y-125076033D02*
X158231315Y-125076033D01*
X158231315Y-125076033D02*
X158297982Y-125109366D01*
X158297982Y-125109366D02*
X158331315Y-125142700D01*
X158331315Y-125142700D02*
X158364649Y-125209366D01*
X158364649Y-125209366D02*
X158397982Y-125342700D01*
X158397982Y-125342700D02*
X158397982Y-125509366D01*
X158397982Y-125509366D02*
X158364649Y-125642700D01*
X158364649Y-125642700D02*
X158331315Y-125709366D01*
X158331315Y-125709366D02*
X158297982Y-125742700D01*
X158297982Y-125742700D02*
X158231315Y-125776033D01*
X158231315Y-125776033D02*
X158164649Y-125776033D01*
X158164649Y-125776033D02*
X158097982Y-125742700D01*
X158097982Y-125742700D02*
X158064649Y-125709366D01*
X158064649Y-125709366D02*
X158031315Y-125642700D01*
X158031315Y-125642700D02*
X157997982Y-125509366D01*
X157997982Y-125509366D02*
X157997982Y-125342700D01*
X157997982Y-125342700D02*
X158031315Y-125209366D01*
X158031315Y-125209366D02*
X158064649Y-125142700D01*
X158064649Y-125142700D02*
X158097982Y-125109366D01*
X158097982Y-125109366D02*
X158164649Y-125076033D01*
X155264649Y-97169366D02*
X155197982Y-97136033D01*
X155197982Y-97136033D02*
X155097982Y-97136033D01*
X155097982Y-97136033D02*
X154997982Y-97169366D01*
X154997982Y-97169366D02*
X154931316Y-97236033D01*
X154931316Y-97236033D02*
X154897982Y-97302700D01*
X154897982Y-97302700D02*
X154864649Y-97436033D01*
X154864649Y-97436033D02*
X154864649Y-97536033D01*
X154864649Y-97536033D02*
X154897982Y-97669366D01*
X154897982Y-97669366D02*
X154931316Y-97736033D01*
X154931316Y-97736033D02*
X154997982Y-97802700D01*
X154997982Y-97802700D02*
X155097982Y-97836033D01*
X155097982Y-97836033D02*
X155164649Y-97836033D01*
X155164649Y-97836033D02*
X155264649Y-97802700D01*
X155264649Y-97802700D02*
X155297982Y-97769366D01*
X155297982Y-97769366D02*
X155297982Y-97536033D01*
X155297982Y-97536033D02*
X155164649Y-97536033D01*
X155597982Y-97836033D02*
X155597982Y-97136033D01*
X155597982Y-97136033D02*
X155864649Y-97136033D01*
X155864649Y-97136033D02*
X155931316Y-97169366D01*
X155931316Y-97169366D02*
X155964649Y-97202700D01*
X155964649Y-97202700D02*
X155997982Y-97269366D01*
X155997982Y-97269366D02*
X155997982Y-97369366D01*
X155997982Y-97369366D02*
X155964649Y-97436033D01*
X155964649Y-97436033D02*
X155931316Y-97469366D01*
X155931316Y-97469366D02*
X155864649Y-97502700D01*
X155864649Y-97502700D02*
X155597982Y-97502700D01*
X156297982Y-97836033D02*
X156297982Y-97136033D01*
X156764649Y-97136033D02*
X156897982Y-97136033D01*
X156897982Y-97136033D02*
X156964649Y-97169366D01*
X156964649Y-97169366D02*
X157031315Y-97236033D01*
X157031315Y-97236033D02*
X157064649Y-97369366D01*
X157064649Y-97369366D02*
X157064649Y-97602700D01*
X157064649Y-97602700D02*
X157031315Y-97736033D01*
X157031315Y-97736033D02*
X156964649Y-97802700D01*
X156964649Y-97802700D02*
X156897982Y-97836033D01*
X156897982Y-97836033D02*
X156764649Y-97836033D01*
X156764649Y-97836033D02*
X156697982Y-97802700D01*
X156697982Y-97802700D02*
X156631315Y-97736033D01*
X156631315Y-97736033D02*
X156597982Y-97602700D01*
X156597982Y-97602700D02*
X156597982Y-97369366D01*
X156597982Y-97369366D02*
X156631315Y-97236033D01*
X156631315Y-97236033D02*
X156697982Y-97169366D01*
X156697982Y-97169366D02*
X156764649Y-97136033D01*
X157331315Y-97202700D02*
X157364648Y-97169366D01*
X157364648Y-97169366D02*
X157431315Y-97136033D01*
X157431315Y-97136033D02*
X157597982Y-97136033D01*
X157597982Y-97136033D02*
X157664648Y-97169366D01*
X157664648Y-97169366D02*
X157697982Y-97202700D01*
X157697982Y-97202700D02*
X157731315Y-97269366D01*
X157731315Y-97269366D02*
X157731315Y-97336033D01*
X157731315Y-97336033D02*
X157697982Y-97436033D01*
X157697982Y-97436033D02*
X157297982Y-97836033D01*
X157297982Y-97836033D02*
X157731315Y-97836033D01*
X157997982Y-97202700D02*
X158031315Y-97169366D01*
X158031315Y-97169366D02*
X158097982Y-97136033D01*
X158097982Y-97136033D02*
X158264649Y-97136033D01*
X158264649Y-97136033D02*
X158331315Y-97169366D01*
X158331315Y-97169366D02*
X158364649Y-97202700D01*
X158364649Y-97202700D02*
X158397982Y-97269366D01*
X158397982Y-97269366D02*
X158397982Y-97336033D01*
X158397982Y-97336033D02*
X158364649Y-97436033D01*
X158364649Y-97436033D02*
X157964649Y-97836033D01*
X157964649Y-97836033D02*
X158397982Y-97836033D01*
X155931316Y-127649366D02*
X155864649Y-127616033D01*
X155864649Y-127616033D02*
X155764649Y-127616033D01*
X155764649Y-127616033D02*
X155664649Y-127649366D01*
X155664649Y-127649366D02*
X155597983Y-127716033D01*
X155597983Y-127716033D02*
X155564649Y-127782700D01*
X155564649Y-127782700D02*
X155531316Y-127916033D01*
X155531316Y-127916033D02*
X155531316Y-128016033D01*
X155531316Y-128016033D02*
X155564649Y-128149366D01*
X155564649Y-128149366D02*
X155597983Y-128216033D01*
X155597983Y-128216033D02*
X155664649Y-128282700D01*
X155664649Y-128282700D02*
X155764649Y-128316033D01*
X155764649Y-128316033D02*
X155831316Y-128316033D01*
X155831316Y-128316033D02*
X155931316Y-128282700D01*
X155931316Y-128282700D02*
X155964649Y-128249366D01*
X155964649Y-128249366D02*
X155964649Y-128016033D01*
X155964649Y-128016033D02*
X155831316Y-128016033D01*
X156264649Y-128316033D02*
X156264649Y-127616033D01*
X156264649Y-127616033D02*
X156531316Y-127616033D01*
X156531316Y-127616033D02*
X156597983Y-127649366D01*
X156597983Y-127649366D02*
X156631316Y-127682700D01*
X156631316Y-127682700D02*
X156664649Y-127749366D01*
X156664649Y-127749366D02*
X156664649Y-127849366D01*
X156664649Y-127849366D02*
X156631316Y-127916033D01*
X156631316Y-127916033D02*
X156597983Y-127949366D01*
X156597983Y-127949366D02*
X156531316Y-127982700D01*
X156531316Y-127982700D02*
X156264649Y-127982700D01*
X156964649Y-128316033D02*
X156964649Y-127616033D01*
X157431316Y-127616033D02*
X157564649Y-127616033D01*
X157564649Y-127616033D02*
X157631316Y-127649366D01*
X157631316Y-127649366D02*
X157697982Y-127716033D01*
X157697982Y-127716033D02*
X157731316Y-127849366D01*
X157731316Y-127849366D02*
X157731316Y-128082700D01*
X157731316Y-128082700D02*
X157697982Y-128216033D01*
X157697982Y-128216033D02*
X157631316Y-128282700D01*
X157631316Y-128282700D02*
X157564649Y-128316033D01*
X157564649Y-128316033D02*
X157431316Y-128316033D01*
X157431316Y-128316033D02*
X157364649Y-128282700D01*
X157364649Y-128282700D02*
X157297982Y-128216033D01*
X157297982Y-128216033D02*
X157264649Y-128082700D01*
X157264649Y-128082700D02*
X157264649Y-127849366D01*
X157264649Y-127849366D02*
X157297982Y-127716033D01*
X157297982Y-127716033D02*
X157364649Y-127649366D01*
X157364649Y-127649366D02*
X157431316Y-127616033D01*
X157997982Y-127682700D02*
X158031315Y-127649366D01*
X158031315Y-127649366D02*
X158097982Y-127616033D01*
X158097982Y-127616033D02*
X158264649Y-127616033D01*
X158264649Y-127616033D02*
X158331315Y-127649366D01*
X158331315Y-127649366D02*
X158364649Y-127682700D01*
X158364649Y-127682700D02*
X158397982Y-127749366D01*
X158397982Y-127749366D02*
X158397982Y-127816033D01*
X158397982Y-127816033D02*
X158364649Y-127916033D01*
X158364649Y-127916033D02*
X157964649Y-128316033D01*
X157964649Y-128316033D02*
X158397982Y-128316033D01*
X136035350Y-133396033D02*
X136035350Y-132696033D01*
X136035350Y-132696033D02*
X136202017Y-132696033D01*
X136202017Y-132696033D02*
X136302017Y-132729366D01*
X136302017Y-132729366D02*
X136368684Y-132796033D01*
X136368684Y-132796033D02*
X136402017Y-132862700D01*
X136402017Y-132862700D02*
X136435350Y-132996033D01*
X136435350Y-132996033D02*
X136435350Y-133096033D01*
X136435350Y-133096033D02*
X136402017Y-133229366D01*
X136402017Y-133229366D02*
X136368684Y-133296033D01*
X136368684Y-133296033D02*
X136302017Y-133362700D01*
X136302017Y-133362700D02*
X136202017Y-133396033D01*
X136202017Y-133396033D02*
X136035350Y-133396033D01*
X136668684Y-132696033D02*
X137102017Y-132696033D01*
X137102017Y-132696033D02*
X136868684Y-132962700D01*
X136868684Y-132962700D02*
X136968684Y-132962700D01*
X136968684Y-132962700D02*
X137035350Y-132996033D01*
X137035350Y-132996033D02*
X137068684Y-133029366D01*
X137068684Y-133029366D02*
X137102017Y-133096033D01*
X137102017Y-133096033D02*
X137102017Y-133262700D01*
X137102017Y-133262700D02*
X137068684Y-133329366D01*
X137068684Y-133329366D02*
X137035350Y-133362700D01*
X137035350Y-133362700D02*
X136968684Y-133396033D01*
X136968684Y-133396033D02*
X136768684Y-133396033D01*
X136768684Y-133396033D02*
X136702017Y-133362700D01*
X136702017Y-133362700D02*
X136668684Y-133329366D01*
X155264649Y-112409366D02*
X155197982Y-112376033D01*
X155197982Y-112376033D02*
X155097982Y-112376033D01*
X155097982Y-112376033D02*
X154997982Y-112409366D01*
X154997982Y-112409366D02*
X154931316Y-112476033D01*
X154931316Y-112476033D02*
X154897982Y-112542700D01*
X154897982Y-112542700D02*
X154864649Y-112676033D01*
X154864649Y-112676033D02*
X154864649Y-112776033D01*
X154864649Y-112776033D02*
X154897982Y-112909366D01*
X154897982Y-112909366D02*
X154931316Y-112976033D01*
X154931316Y-112976033D02*
X154997982Y-113042700D01*
X154997982Y-113042700D02*
X155097982Y-113076033D01*
X155097982Y-113076033D02*
X155164649Y-113076033D01*
X155164649Y-113076033D02*
X155264649Y-113042700D01*
X155264649Y-113042700D02*
X155297982Y-113009366D01*
X155297982Y-113009366D02*
X155297982Y-112776033D01*
X155297982Y-112776033D02*
X155164649Y-112776033D01*
X155597982Y-113076033D02*
X155597982Y-112376033D01*
X155597982Y-112376033D02*
X155864649Y-112376033D01*
X155864649Y-112376033D02*
X155931316Y-112409366D01*
X155931316Y-112409366D02*
X155964649Y-112442700D01*
X155964649Y-112442700D02*
X155997982Y-112509366D01*
X155997982Y-112509366D02*
X155997982Y-112609366D01*
X155997982Y-112609366D02*
X155964649Y-112676033D01*
X155964649Y-112676033D02*
X155931316Y-112709366D01*
X155931316Y-112709366D02*
X155864649Y-112742700D01*
X155864649Y-112742700D02*
X155597982Y-112742700D01*
X156297982Y-113076033D02*
X156297982Y-112376033D01*
X156764649Y-112376033D02*
X156897982Y-112376033D01*
X156897982Y-112376033D02*
X156964649Y-112409366D01*
X156964649Y-112409366D02*
X157031315Y-112476033D01*
X157031315Y-112476033D02*
X157064649Y-112609366D01*
X157064649Y-112609366D02*
X157064649Y-112842700D01*
X157064649Y-112842700D02*
X157031315Y-112976033D01*
X157031315Y-112976033D02*
X156964649Y-113042700D01*
X156964649Y-113042700D02*
X156897982Y-113076033D01*
X156897982Y-113076033D02*
X156764649Y-113076033D01*
X156764649Y-113076033D02*
X156697982Y-113042700D01*
X156697982Y-113042700D02*
X156631315Y-112976033D01*
X156631315Y-112976033D02*
X156597982Y-112842700D01*
X156597982Y-112842700D02*
X156597982Y-112609366D01*
X156597982Y-112609366D02*
X156631315Y-112476033D01*
X156631315Y-112476033D02*
X156697982Y-112409366D01*
X156697982Y-112409366D02*
X156764649Y-112376033D01*
X157731315Y-113076033D02*
X157331315Y-113076033D01*
X157531315Y-113076033D02*
X157531315Y-112376033D01*
X157531315Y-112376033D02*
X157464648Y-112476033D01*
X157464648Y-112476033D02*
X157397982Y-112542700D01*
X157397982Y-112542700D02*
X157331315Y-112576033D01*
X158131315Y-112676033D02*
X158064649Y-112642700D01*
X158064649Y-112642700D02*
X158031315Y-112609366D01*
X158031315Y-112609366D02*
X157997982Y-112542700D01*
X157997982Y-112542700D02*
X157997982Y-112509366D01*
X157997982Y-112509366D02*
X158031315Y-112442700D01*
X158031315Y-112442700D02*
X158064649Y-112409366D01*
X158064649Y-112409366D02*
X158131315Y-112376033D01*
X158131315Y-112376033D02*
X158264649Y-112376033D01*
X158264649Y-112376033D02*
X158331315Y-112409366D01*
X158331315Y-112409366D02*
X158364649Y-112442700D01*
X158364649Y-112442700D02*
X158397982Y-112509366D01*
X158397982Y-112509366D02*
X158397982Y-112542700D01*
X158397982Y-112542700D02*
X158364649Y-112609366D01*
X158364649Y-112609366D02*
X158331315Y-112642700D01*
X158331315Y-112642700D02*
X158264649Y-112676033D01*
X158264649Y-112676033D02*
X158131315Y-112676033D01*
X158131315Y-112676033D02*
X158064649Y-112709366D01*
X158064649Y-112709366D02*
X158031315Y-112742700D01*
X158031315Y-112742700D02*
X157997982Y-112809366D01*
X157997982Y-112809366D02*
X157997982Y-112942700D01*
X157997982Y-112942700D02*
X158031315Y-113009366D01*
X158031315Y-113009366D02*
X158064649Y-113042700D01*
X158064649Y-113042700D02*
X158131315Y-113076033D01*
X158131315Y-113076033D02*
X158264649Y-113076033D01*
X158264649Y-113076033D02*
X158331315Y-113042700D01*
X158331315Y-113042700D02*
X158364649Y-113009366D01*
X158364649Y-113009366D02*
X158397982Y-112942700D01*
X158397982Y-112942700D02*
X158397982Y-112809366D01*
X158397982Y-112809366D02*
X158364649Y-112742700D01*
X158364649Y-112742700D02*
X158331315Y-112709366D01*
X158331315Y-112709366D02*
X158264649Y-112676033D01*
X136035350Y-130856033D02*
X136035350Y-130156033D01*
X136035350Y-130156033D02*
X136202017Y-130156033D01*
X136202017Y-130156033D02*
X136302017Y-130189366D01*
X136302017Y-130189366D02*
X136368684Y-130256033D01*
X136368684Y-130256033D02*
X136402017Y-130322700D01*
X136402017Y-130322700D02*
X136435350Y-130456033D01*
X136435350Y-130456033D02*
X136435350Y-130556033D01*
X136435350Y-130556033D02*
X136402017Y-130689366D01*
X136402017Y-130689366D02*
X136368684Y-130756033D01*
X136368684Y-130756033D02*
X136302017Y-130822700D01*
X136302017Y-130822700D02*
X136202017Y-130856033D01*
X136202017Y-130856033D02*
X136035350Y-130856033D01*
X136702017Y-130222700D02*
X136735350Y-130189366D01*
X136735350Y-130189366D02*
X136802017Y-130156033D01*
X136802017Y-130156033D02*
X136968684Y-130156033D01*
X136968684Y-130156033D02*
X137035350Y-130189366D01*
X137035350Y-130189366D02*
X137068684Y-130222700D01*
X137068684Y-130222700D02*
X137102017Y-130289366D01*
X137102017Y-130289366D02*
X137102017Y-130356033D01*
X137102017Y-130356033D02*
X137068684Y-130456033D01*
X137068684Y-130456033D02*
X136668684Y-130856033D01*
X136668684Y-130856033D02*
X137102017Y-130856033D01*
X157331315Y-135936033D02*
X157331315Y-135236033D01*
X157331315Y-135236033D02*
X157497982Y-135236033D01*
X157497982Y-135236033D02*
X157597982Y-135269366D01*
X157597982Y-135269366D02*
X157664649Y-135336033D01*
X157664649Y-135336033D02*
X157697982Y-135402700D01*
X157697982Y-135402700D02*
X157731315Y-135536033D01*
X157731315Y-135536033D02*
X157731315Y-135636033D01*
X157731315Y-135636033D02*
X157697982Y-135769366D01*
X157697982Y-135769366D02*
X157664649Y-135836033D01*
X157664649Y-135836033D02*
X157597982Y-135902700D01*
X157597982Y-135902700D02*
X157497982Y-135936033D01*
X157497982Y-135936033D02*
X157331315Y-135936033D01*
X158164649Y-135236033D02*
X158231315Y-135236033D01*
X158231315Y-135236033D02*
X158297982Y-135269366D01*
X158297982Y-135269366D02*
X158331315Y-135302700D01*
X158331315Y-135302700D02*
X158364649Y-135369366D01*
X158364649Y-135369366D02*
X158397982Y-135502700D01*
X158397982Y-135502700D02*
X158397982Y-135669366D01*
X158397982Y-135669366D02*
X158364649Y-135802700D01*
X158364649Y-135802700D02*
X158331315Y-135869366D01*
X158331315Y-135869366D02*
X158297982Y-135902700D01*
X158297982Y-135902700D02*
X158231315Y-135936033D01*
X158231315Y-135936033D02*
X158164649Y-135936033D01*
X158164649Y-135936033D02*
X158097982Y-135902700D01*
X158097982Y-135902700D02*
X158064649Y-135869366D01*
X158064649Y-135869366D02*
X158031315Y-135802700D01*
X158031315Y-135802700D02*
X157997982Y-135669366D01*
X157997982Y-135669366D02*
X157997982Y-135502700D01*
X157997982Y-135502700D02*
X158031315Y-135369366D01*
X158031315Y-135369366D02*
X158064649Y-135302700D01*
X158064649Y-135302700D02*
X158097982Y-135269366D01*
X158097982Y-135269366D02*
X158164649Y-135236033D01*
X135935350Y-99676033D02*
X136168684Y-100376033D01*
X136168684Y-100376033D02*
X136402017Y-99676033D01*
X136635350Y-100376033D02*
X136635350Y-99676033D01*
X136635350Y-99676033D02*
X137035350Y-100376033D01*
X137035350Y-100376033D02*
X137035350Y-99676033D01*
X137868683Y-99642700D02*
X137268683Y-100542700D01*
X138468683Y-99709366D02*
X138402016Y-99676033D01*
X138402016Y-99676033D02*
X138302016Y-99676033D01*
X138302016Y-99676033D02*
X138202016Y-99709366D01*
X138202016Y-99709366D02*
X138135350Y-99776033D01*
X138135350Y-99776033D02*
X138102016Y-99842700D01*
X138102016Y-99842700D02*
X138068683Y-99976033D01*
X138068683Y-99976033D02*
X138068683Y-100076033D01*
X138068683Y-100076033D02*
X138102016Y-100209366D01*
X138102016Y-100209366D02*
X138135350Y-100276033D01*
X138135350Y-100276033D02*
X138202016Y-100342700D01*
X138202016Y-100342700D02*
X138302016Y-100376033D01*
X138302016Y-100376033D02*
X138368683Y-100376033D01*
X138368683Y-100376033D02*
X138468683Y-100342700D01*
X138468683Y-100342700D02*
X138502016Y-100309366D01*
X138502016Y-100309366D02*
X138502016Y-100076033D01*
X138502016Y-100076033D02*
X138368683Y-100076033D01*
X138802016Y-100376033D02*
X138802016Y-99676033D01*
X138802016Y-99676033D02*
X139068683Y-99676033D01*
X139068683Y-99676033D02*
X139135350Y-99709366D01*
X139135350Y-99709366D02*
X139168683Y-99742700D01*
X139168683Y-99742700D02*
X139202016Y-99809366D01*
X139202016Y-99809366D02*
X139202016Y-99909366D01*
X139202016Y-99909366D02*
X139168683Y-99976033D01*
X139168683Y-99976033D02*
X139135350Y-100009366D01*
X139135350Y-100009366D02*
X139068683Y-100042700D01*
X139068683Y-100042700D02*
X138802016Y-100042700D01*
X139502016Y-100376033D02*
X139502016Y-99676033D01*
X139968683Y-99676033D02*
X140102016Y-99676033D01*
X140102016Y-99676033D02*
X140168683Y-99709366D01*
X140168683Y-99709366D02*
X140235349Y-99776033D01*
X140235349Y-99776033D02*
X140268683Y-99909366D01*
X140268683Y-99909366D02*
X140268683Y-100142700D01*
X140268683Y-100142700D02*
X140235349Y-100276033D01*
X140235349Y-100276033D02*
X140168683Y-100342700D01*
X140168683Y-100342700D02*
X140102016Y-100376033D01*
X140102016Y-100376033D02*
X139968683Y-100376033D01*
X139968683Y-100376033D02*
X139902016Y-100342700D01*
X139902016Y-100342700D02*
X139835349Y-100276033D01*
X139835349Y-100276033D02*
X139802016Y-100142700D01*
X139802016Y-100142700D02*
X139802016Y-99909366D01*
X139802016Y-99909366D02*
X139835349Y-99776033D01*
X139835349Y-99776033D02*
X139902016Y-99709366D01*
X139902016Y-99709366D02*
X139968683Y-99676033D01*
X140502016Y-99676033D02*
X140935349Y-99676033D01*
X140935349Y-99676033D02*
X140702016Y-99942700D01*
X140702016Y-99942700D02*
X140802016Y-99942700D01*
X140802016Y-99942700D02*
X140868682Y-99976033D01*
X140868682Y-99976033D02*
X140902016Y-100009366D01*
X140902016Y-100009366D02*
X140935349Y-100076033D01*
X140935349Y-100076033D02*
X140935349Y-100242700D01*
X140935349Y-100242700D02*
X140902016Y-100309366D01*
X140902016Y-100309366D02*
X140868682Y-100342700D01*
X140868682Y-100342700D02*
X140802016Y-100376033D01*
X140802016Y-100376033D02*
X140602016Y-100376033D01*
X140602016Y-100376033D02*
X140535349Y-100342700D01*
X140535349Y-100342700D02*
X140502016Y-100309366D01*
X141268683Y-100376033D02*
X141402016Y-100376033D01*
X141402016Y-100376033D02*
X141468683Y-100342700D01*
X141468683Y-100342700D02*
X141502016Y-100309366D01*
X141502016Y-100309366D02*
X141568683Y-100209366D01*
X141568683Y-100209366D02*
X141602016Y-100076033D01*
X141602016Y-100076033D02*
X141602016Y-99809366D01*
X141602016Y-99809366D02*
X141568683Y-99742700D01*
X141568683Y-99742700D02*
X141535349Y-99709366D01*
X141535349Y-99709366D02*
X141468683Y-99676033D01*
X141468683Y-99676033D02*
X141335349Y-99676033D01*
X141335349Y-99676033D02*
X141268683Y-99709366D01*
X141268683Y-99709366D02*
X141235349Y-99742700D01*
X141235349Y-99742700D02*
X141202016Y-99809366D01*
X141202016Y-99809366D02*
X141202016Y-99976033D01*
X141202016Y-99976033D02*
X141235349Y-100042700D01*
X141235349Y-100042700D02*
X141268683Y-100076033D01*
X141268683Y-100076033D02*
X141335349Y-100109366D01*
X141335349Y-100109366D02*
X141468683Y-100109366D01*
X141468683Y-100109366D02*
X141535349Y-100076033D01*
X141535349Y-100076033D02*
X141568683Y-100042700D01*
X141568683Y-100042700D02*
X141602016Y-99976033D01*
X155264649Y-120029366D02*
X155197982Y-119996033D01*
X155197982Y-119996033D02*
X155097982Y-119996033D01*
X155097982Y-119996033D02*
X154997982Y-120029366D01*
X154997982Y-120029366D02*
X154931316Y-120096033D01*
X154931316Y-120096033D02*
X154897982Y-120162700D01*
X154897982Y-120162700D02*
X154864649Y-120296033D01*
X154864649Y-120296033D02*
X154864649Y-120396033D01*
X154864649Y-120396033D02*
X154897982Y-120529366D01*
X154897982Y-120529366D02*
X154931316Y-120596033D01*
X154931316Y-120596033D02*
X154997982Y-120662700D01*
X154997982Y-120662700D02*
X155097982Y-120696033D01*
X155097982Y-120696033D02*
X155164649Y-120696033D01*
X155164649Y-120696033D02*
X155264649Y-120662700D01*
X155264649Y-120662700D02*
X155297982Y-120629366D01*
X155297982Y-120629366D02*
X155297982Y-120396033D01*
X155297982Y-120396033D02*
X155164649Y-120396033D01*
X155597982Y-120696033D02*
X155597982Y-119996033D01*
X155597982Y-119996033D02*
X155864649Y-119996033D01*
X155864649Y-119996033D02*
X155931316Y-120029366D01*
X155931316Y-120029366D02*
X155964649Y-120062700D01*
X155964649Y-120062700D02*
X155997982Y-120129366D01*
X155997982Y-120129366D02*
X155997982Y-120229366D01*
X155997982Y-120229366D02*
X155964649Y-120296033D01*
X155964649Y-120296033D02*
X155931316Y-120329366D01*
X155931316Y-120329366D02*
X155864649Y-120362700D01*
X155864649Y-120362700D02*
X155597982Y-120362700D01*
X156297982Y-120696033D02*
X156297982Y-119996033D01*
X156764649Y-119996033D02*
X156897982Y-119996033D01*
X156897982Y-119996033D02*
X156964649Y-120029366D01*
X156964649Y-120029366D02*
X157031315Y-120096033D01*
X157031315Y-120096033D02*
X157064649Y-120229366D01*
X157064649Y-120229366D02*
X157064649Y-120462700D01*
X157064649Y-120462700D02*
X157031315Y-120596033D01*
X157031315Y-120596033D02*
X156964649Y-120662700D01*
X156964649Y-120662700D02*
X156897982Y-120696033D01*
X156897982Y-120696033D02*
X156764649Y-120696033D01*
X156764649Y-120696033D02*
X156697982Y-120662700D01*
X156697982Y-120662700D02*
X156631315Y-120596033D01*
X156631315Y-120596033D02*
X156597982Y-120462700D01*
X156597982Y-120462700D02*
X156597982Y-120229366D01*
X156597982Y-120229366D02*
X156631315Y-120096033D01*
X156631315Y-120096033D02*
X156697982Y-120029366D01*
X156697982Y-120029366D02*
X156764649Y-119996033D01*
X157731315Y-120696033D02*
X157331315Y-120696033D01*
X157531315Y-120696033D02*
X157531315Y-119996033D01*
X157531315Y-119996033D02*
X157464648Y-120096033D01*
X157464648Y-120096033D02*
X157397982Y-120162700D01*
X157397982Y-120162700D02*
X157331315Y-120196033D01*
X158331315Y-119996033D02*
X158197982Y-119996033D01*
X158197982Y-119996033D02*
X158131315Y-120029366D01*
X158131315Y-120029366D02*
X158097982Y-120062700D01*
X158097982Y-120062700D02*
X158031315Y-120162700D01*
X158031315Y-120162700D02*
X157997982Y-120296033D01*
X157997982Y-120296033D02*
X157997982Y-120562700D01*
X157997982Y-120562700D02*
X158031315Y-120629366D01*
X158031315Y-120629366D02*
X158064649Y-120662700D01*
X158064649Y-120662700D02*
X158131315Y-120696033D01*
X158131315Y-120696033D02*
X158264649Y-120696033D01*
X158264649Y-120696033D02*
X158331315Y-120662700D01*
X158331315Y-120662700D02*
X158364649Y-120629366D01*
X158364649Y-120629366D02*
X158397982Y-120562700D01*
X158397982Y-120562700D02*
X158397982Y-120396033D01*
X158397982Y-120396033D02*
X158364649Y-120329366D01*
X158364649Y-120329366D02*
X158331315Y-120296033D01*
X158331315Y-120296033D02*
X158264649Y-120262700D01*
X158264649Y-120262700D02*
X158131315Y-120262700D01*
X158131315Y-120262700D02*
X158064649Y-120296033D01*
X158064649Y-120296033D02*
X158031315Y-120329366D01*
X158031315Y-120329366D02*
X157997982Y-120396033D01*
X155264649Y-94629366D02*
X155197982Y-94596033D01*
X155197982Y-94596033D02*
X155097982Y-94596033D01*
X155097982Y-94596033D02*
X154997982Y-94629366D01*
X154997982Y-94629366D02*
X154931316Y-94696033D01*
X154931316Y-94696033D02*
X154897982Y-94762700D01*
X154897982Y-94762700D02*
X154864649Y-94896033D01*
X154864649Y-94896033D02*
X154864649Y-94996033D01*
X154864649Y-94996033D02*
X154897982Y-95129366D01*
X154897982Y-95129366D02*
X154931316Y-95196033D01*
X154931316Y-95196033D02*
X154997982Y-95262700D01*
X154997982Y-95262700D02*
X155097982Y-95296033D01*
X155097982Y-95296033D02*
X155164649Y-95296033D01*
X155164649Y-95296033D02*
X155264649Y-95262700D01*
X155264649Y-95262700D02*
X155297982Y-95229366D01*
X155297982Y-95229366D02*
X155297982Y-94996033D01*
X155297982Y-94996033D02*
X155164649Y-94996033D01*
X155597982Y-95296033D02*
X155597982Y-94596033D01*
X155597982Y-94596033D02*
X155864649Y-94596033D01*
X155864649Y-94596033D02*
X155931316Y-94629366D01*
X155931316Y-94629366D02*
X155964649Y-94662700D01*
X155964649Y-94662700D02*
X155997982Y-94729366D01*
X155997982Y-94729366D02*
X155997982Y-94829366D01*
X155997982Y-94829366D02*
X155964649Y-94896033D01*
X155964649Y-94896033D02*
X155931316Y-94929366D01*
X155931316Y-94929366D02*
X155864649Y-94962700D01*
X155864649Y-94962700D02*
X155597982Y-94962700D01*
X156297982Y-95296033D02*
X156297982Y-94596033D01*
X156764649Y-94596033D02*
X156897982Y-94596033D01*
X156897982Y-94596033D02*
X156964649Y-94629366D01*
X156964649Y-94629366D02*
X157031315Y-94696033D01*
X157031315Y-94696033D02*
X157064649Y-94829366D01*
X157064649Y-94829366D02*
X157064649Y-95062700D01*
X157064649Y-95062700D02*
X157031315Y-95196033D01*
X157031315Y-95196033D02*
X156964649Y-95262700D01*
X156964649Y-95262700D02*
X156897982Y-95296033D01*
X156897982Y-95296033D02*
X156764649Y-95296033D01*
X156764649Y-95296033D02*
X156697982Y-95262700D01*
X156697982Y-95262700D02*
X156631315Y-95196033D01*
X156631315Y-95196033D02*
X156597982Y-95062700D01*
X156597982Y-95062700D02*
X156597982Y-94829366D01*
X156597982Y-94829366D02*
X156631315Y-94696033D01*
X156631315Y-94696033D02*
X156697982Y-94629366D01*
X156697982Y-94629366D02*
X156764649Y-94596033D01*
X157331315Y-94662700D02*
X157364648Y-94629366D01*
X157364648Y-94629366D02*
X157431315Y-94596033D01*
X157431315Y-94596033D02*
X157597982Y-94596033D01*
X157597982Y-94596033D02*
X157664648Y-94629366D01*
X157664648Y-94629366D02*
X157697982Y-94662700D01*
X157697982Y-94662700D02*
X157731315Y-94729366D01*
X157731315Y-94729366D02*
X157731315Y-94796033D01*
X157731315Y-94796033D02*
X157697982Y-94896033D01*
X157697982Y-94896033D02*
X157297982Y-95296033D01*
X157297982Y-95296033D02*
X157731315Y-95296033D01*
X157964649Y-94596033D02*
X158397982Y-94596033D01*
X158397982Y-94596033D02*
X158164649Y-94862700D01*
X158164649Y-94862700D02*
X158264649Y-94862700D01*
X158264649Y-94862700D02*
X158331315Y-94896033D01*
X158331315Y-94896033D02*
X158364649Y-94929366D01*
X158364649Y-94929366D02*
X158397982Y-94996033D01*
X158397982Y-94996033D02*
X158397982Y-95162700D01*
X158397982Y-95162700D02*
X158364649Y-95229366D01*
X158364649Y-95229366D02*
X158331315Y-95262700D01*
X158331315Y-95262700D02*
X158264649Y-95296033D01*
X158264649Y-95296033D02*
X158064649Y-95296033D01*
X158064649Y-95296033D02*
X157997982Y-95262700D01*
X157997982Y-95262700D02*
X157964649Y-95229366D01*
X155264649Y-109869366D02*
X155197982Y-109836033D01*
X155197982Y-109836033D02*
X155097982Y-109836033D01*
X155097982Y-109836033D02*
X154997982Y-109869366D01*
X154997982Y-109869366D02*
X154931316Y-109936033D01*
X154931316Y-109936033D02*
X154897982Y-110002700D01*
X154897982Y-110002700D02*
X154864649Y-110136033D01*
X154864649Y-110136033D02*
X154864649Y-110236033D01*
X154864649Y-110236033D02*
X154897982Y-110369366D01*
X154897982Y-110369366D02*
X154931316Y-110436033D01*
X154931316Y-110436033D02*
X154997982Y-110502700D01*
X154997982Y-110502700D02*
X155097982Y-110536033D01*
X155097982Y-110536033D02*
X155164649Y-110536033D01*
X155164649Y-110536033D02*
X155264649Y-110502700D01*
X155264649Y-110502700D02*
X155297982Y-110469366D01*
X155297982Y-110469366D02*
X155297982Y-110236033D01*
X155297982Y-110236033D02*
X155164649Y-110236033D01*
X155597982Y-110536033D02*
X155597982Y-109836033D01*
X155597982Y-109836033D02*
X155864649Y-109836033D01*
X155864649Y-109836033D02*
X155931316Y-109869366D01*
X155931316Y-109869366D02*
X155964649Y-109902700D01*
X155964649Y-109902700D02*
X155997982Y-109969366D01*
X155997982Y-109969366D02*
X155997982Y-110069366D01*
X155997982Y-110069366D02*
X155964649Y-110136033D01*
X155964649Y-110136033D02*
X155931316Y-110169366D01*
X155931316Y-110169366D02*
X155864649Y-110202700D01*
X155864649Y-110202700D02*
X155597982Y-110202700D01*
X156297982Y-110536033D02*
X156297982Y-109836033D01*
X156764649Y-109836033D02*
X156897982Y-109836033D01*
X156897982Y-109836033D02*
X156964649Y-109869366D01*
X156964649Y-109869366D02*
X157031315Y-109936033D01*
X157031315Y-109936033D02*
X157064649Y-110069366D01*
X157064649Y-110069366D02*
X157064649Y-110302700D01*
X157064649Y-110302700D02*
X157031315Y-110436033D01*
X157031315Y-110436033D02*
X156964649Y-110502700D01*
X156964649Y-110502700D02*
X156897982Y-110536033D01*
X156897982Y-110536033D02*
X156764649Y-110536033D01*
X156764649Y-110536033D02*
X156697982Y-110502700D01*
X156697982Y-110502700D02*
X156631315Y-110436033D01*
X156631315Y-110436033D02*
X156597982Y-110302700D01*
X156597982Y-110302700D02*
X156597982Y-110069366D01*
X156597982Y-110069366D02*
X156631315Y-109936033D01*
X156631315Y-109936033D02*
X156697982Y-109869366D01*
X156697982Y-109869366D02*
X156764649Y-109836033D01*
X157731315Y-110536033D02*
X157331315Y-110536033D01*
X157531315Y-110536033D02*
X157531315Y-109836033D01*
X157531315Y-109836033D02*
X157464648Y-109936033D01*
X157464648Y-109936033D02*
X157397982Y-110002700D01*
X157397982Y-110002700D02*
X157331315Y-110036033D01*
X158064649Y-110536033D02*
X158197982Y-110536033D01*
X158197982Y-110536033D02*
X158264649Y-110502700D01*
X158264649Y-110502700D02*
X158297982Y-110469366D01*
X158297982Y-110469366D02*
X158364649Y-110369366D01*
X158364649Y-110369366D02*
X158397982Y-110236033D01*
X158397982Y-110236033D02*
X158397982Y-109969366D01*
X158397982Y-109969366D02*
X158364649Y-109902700D01*
X158364649Y-109902700D02*
X158331315Y-109869366D01*
X158331315Y-109869366D02*
X158264649Y-109836033D01*
X158264649Y-109836033D02*
X158131315Y-109836033D01*
X158131315Y-109836033D02*
X158064649Y-109869366D01*
X158064649Y-109869366D02*
X158031315Y-109902700D01*
X158031315Y-109902700D02*
X157997982Y-109969366D01*
X157997982Y-109969366D02*
X157997982Y-110136033D01*
X157997982Y-110136033D02*
X158031315Y-110202700D01*
X158031315Y-110202700D02*
X158064649Y-110236033D01*
X158064649Y-110236033D02*
X158131315Y-110269366D01*
X158131315Y-110269366D02*
X158264649Y-110269366D01*
X158264649Y-110269366D02*
X158331315Y-110236033D01*
X158331315Y-110236033D02*
X158364649Y-110202700D01*
X158364649Y-110202700D02*
X158397982Y-110136033D01*
X155264649Y-104789366D02*
X155197982Y-104756033D01*
X155197982Y-104756033D02*
X155097982Y-104756033D01*
X155097982Y-104756033D02*
X154997982Y-104789366D01*
X154997982Y-104789366D02*
X154931316Y-104856033D01*
X154931316Y-104856033D02*
X154897982Y-104922700D01*
X154897982Y-104922700D02*
X154864649Y-105056033D01*
X154864649Y-105056033D02*
X154864649Y-105156033D01*
X154864649Y-105156033D02*
X154897982Y-105289366D01*
X154897982Y-105289366D02*
X154931316Y-105356033D01*
X154931316Y-105356033D02*
X154997982Y-105422700D01*
X154997982Y-105422700D02*
X155097982Y-105456033D01*
X155097982Y-105456033D02*
X155164649Y-105456033D01*
X155164649Y-105456033D02*
X155264649Y-105422700D01*
X155264649Y-105422700D02*
X155297982Y-105389366D01*
X155297982Y-105389366D02*
X155297982Y-105156033D01*
X155297982Y-105156033D02*
X155164649Y-105156033D01*
X155597982Y-105456033D02*
X155597982Y-104756033D01*
X155597982Y-104756033D02*
X155864649Y-104756033D01*
X155864649Y-104756033D02*
X155931316Y-104789366D01*
X155931316Y-104789366D02*
X155964649Y-104822700D01*
X155964649Y-104822700D02*
X155997982Y-104889366D01*
X155997982Y-104889366D02*
X155997982Y-104989366D01*
X155997982Y-104989366D02*
X155964649Y-105056033D01*
X155964649Y-105056033D02*
X155931316Y-105089366D01*
X155931316Y-105089366D02*
X155864649Y-105122700D01*
X155864649Y-105122700D02*
X155597982Y-105122700D01*
X156297982Y-105456033D02*
X156297982Y-104756033D01*
X156764649Y-104756033D02*
X156897982Y-104756033D01*
X156897982Y-104756033D02*
X156964649Y-104789366D01*
X156964649Y-104789366D02*
X157031315Y-104856033D01*
X157031315Y-104856033D02*
X157064649Y-104989366D01*
X157064649Y-104989366D02*
X157064649Y-105222700D01*
X157064649Y-105222700D02*
X157031315Y-105356033D01*
X157031315Y-105356033D02*
X156964649Y-105422700D01*
X156964649Y-105422700D02*
X156897982Y-105456033D01*
X156897982Y-105456033D02*
X156764649Y-105456033D01*
X156764649Y-105456033D02*
X156697982Y-105422700D01*
X156697982Y-105422700D02*
X156631315Y-105356033D01*
X156631315Y-105356033D02*
X156597982Y-105222700D01*
X156597982Y-105222700D02*
X156597982Y-104989366D01*
X156597982Y-104989366D02*
X156631315Y-104856033D01*
X156631315Y-104856033D02*
X156697982Y-104789366D01*
X156697982Y-104789366D02*
X156764649Y-104756033D01*
X157331315Y-104822700D02*
X157364648Y-104789366D01*
X157364648Y-104789366D02*
X157431315Y-104756033D01*
X157431315Y-104756033D02*
X157597982Y-104756033D01*
X157597982Y-104756033D02*
X157664648Y-104789366D01*
X157664648Y-104789366D02*
X157697982Y-104822700D01*
X157697982Y-104822700D02*
X157731315Y-104889366D01*
X157731315Y-104889366D02*
X157731315Y-104956033D01*
X157731315Y-104956033D02*
X157697982Y-105056033D01*
X157697982Y-105056033D02*
X157297982Y-105456033D01*
X157297982Y-105456033D02*
X157731315Y-105456033D01*
X158397982Y-105456033D02*
X157997982Y-105456033D01*
X158197982Y-105456033D02*
X158197982Y-104756033D01*
X158197982Y-104756033D02*
X158131315Y-104856033D01*
X158131315Y-104856033D02*
X158064649Y-104922700D01*
X158064649Y-104922700D02*
X157997982Y-104956033D01*
X136402017Y-102249366D02*
X136335350Y-102216033D01*
X136335350Y-102216033D02*
X136235350Y-102216033D01*
X136235350Y-102216033D02*
X136135350Y-102249366D01*
X136135350Y-102249366D02*
X136068684Y-102316033D01*
X136068684Y-102316033D02*
X136035350Y-102382700D01*
X136035350Y-102382700D02*
X136002017Y-102516033D01*
X136002017Y-102516033D02*
X136002017Y-102616033D01*
X136002017Y-102616033D02*
X136035350Y-102749366D01*
X136035350Y-102749366D02*
X136068684Y-102816033D01*
X136068684Y-102816033D02*
X136135350Y-102882700D01*
X136135350Y-102882700D02*
X136235350Y-102916033D01*
X136235350Y-102916033D02*
X136302017Y-102916033D01*
X136302017Y-102916033D02*
X136402017Y-102882700D01*
X136402017Y-102882700D02*
X136435350Y-102849366D01*
X136435350Y-102849366D02*
X136435350Y-102616033D01*
X136435350Y-102616033D02*
X136302017Y-102616033D01*
X136735350Y-102916033D02*
X136735350Y-102216033D01*
X136735350Y-102216033D02*
X137002017Y-102216033D01*
X137002017Y-102216033D02*
X137068684Y-102249366D01*
X137068684Y-102249366D02*
X137102017Y-102282700D01*
X137102017Y-102282700D02*
X137135350Y-102349366D01*
X137135350Y-102349366D02*
X137135350Y-102449366D01*
X137135350Y-102449366D02*
X137102017Y-102516033D01*
X137102017Y-102516033D02*
X137068684Y-102549366D01*
X137068684Y-102549366D02*
X137002017Y-102582700D01*
X137002017Y-102582700D02*
X136735350Y-102582700D01*
X137435350Y-102916033D02*
X137435350Y-102216033D01*
X137902017Y-102216033D02*
X138035350Y-102216033D01*
X138035350Y-102216033D02*
X138102017Y-102249366D01*
X138102017Y-102249366D02*
X138168683Y-102316033D01*
X138168683Y-102316033D02*
X138202017Y-102449366D01*
X138202017Y-102449366D02*
X138202017Y-102682700D01*
X138202017Y-102682700D02*
X138168683Y-102816033D01*
X138168683Y-102816033D02*
X138102017Y-102882700D01*
X138102017Y-102882700D02*
X138035350Y-102916033D01*
X138035350Y-102916033D02*
X137902017Y-102916033D01*
X137902017Y-102916033D02*
X137835350Y-102882700D01*
X137835350Y-102882700D02*
X137768683Y-102816033D01*
X137768683Y-102816033D02*
X137735350Y-102682700D01*
X137735350Y-102682700D02*
X137735350Y-102449366D01*
X137735350Y-102449366D02*
X137768683Y-102316033D01*
X137768683Y-102316033D02*
X137835350Y-102249366D01*
X137835350Y-102249366D02*
X137902017Y-102216033D01*
X138435350Y-102216033D02*
X138868683Y-102216033D01*
X138868683Y-102216033D02*
X138635350Y-102482700D01*
X138635350Y-102482700D02*
X138735350Y-102482700D01*
X138735350Y-102482700D02*
X138802016Y-102516033D01*
X138802016Y-102516033D02*
X138835350Y-102549366D01*
X138835350Y-102549366D02*
X138868683Y-102616033D01*
X138868683Y-102616033D02*
X138868683Y-102782700D01*
X138868683Y-102782700D02*
X138835350Y-102849366D01*
X138835350Y-102849366D02*
X138802016Y-102882700D01*
X138802016Y-102882700D02*
X138735350Y-102916033D01*
X138735350Y-102916033D02*
X138535350Y-102916033D01*
X138535350Y-102916033D02*
X138468683Y-102882700D01*
X138468683Y-102882700D02*
X138435350Y-102849366D01*
X139468683Y-102449366D02*
X139468683Y-102916033D01*
X139302017Y-102182700D02*
X139135350Y-102682700D01*
X139135350Y-102682700D02*
X139568683Y-102682700D01*
X136402017Y-114949366D02*
X136335350Y-114916033D01*
X136335350Y-114916033D02*
X136235350Y-114916033D01*
X136235350Y-114916033D02*
X136135350Y-114949366D01*
X136135350Y-114949366D02*
X136068684Y-115016033D01*
X136068684Y-115016033D02*
X136035350Y-115082700D01*
X136035350Y-115082700D02*
X136002017Y-115216033D01*
X136002017Y-115216033D02*
X136002017Y-115316033D01*
X136002017Y-115316033D02*
X136035350Y-115449366D01*
X136035350Y-115449366D02*
X136068684Y-115516033D01*
X136068684Y-115516033D02*
X136135350Y-115582700D01*
X136135350Y-115582700D02*
X136235350Y-115616033D01*
X136235350Y-115616033D02*
X136302017Y-115616033D01*
X136302017Y-115616033D02*
X136402017Y-115582700D01*
X136402017Y-115582700D02*
X136435350Y-115549366D01*
X136435350Y-115549366D02*
X136435350Y-115316033D01*
X136435350Y-115316033D02*
X136302017Y-115316033D01*
X136735350Y-115616033D02*
X136735350Y-114916033D01*
X136735350Y-114916033D02*
X137002017Y-114916033D01*
X137002017Y-114916033D02*
X137068684Y-114949366D01*
X137068684Y-114949366D02*
X137102017Y-114982700D01*
X137102017Y-114982700D02*
X137135350Y-115049366D01*
X137135350Y-115049366D02*
X137135350Y-115149366D01*
X137135350Y-115149366D02*
X137102017Y-115216033D01*
X137102017Y-115216033D02*
X137068684Y-115249366D01*
X137068684Y-115249366D02*
X137002017Y-115282700D01*
X137002017Y-115282700D02*
X136735350Y-115282700D01*
X137435350Y-115616033D02*
X137435350Y-114916033D01*
X137902017Y-114916033D02*
X138035350Y-114916033D01*
X138035350Y-114916033D02*
X138102017Y-114949366D01*
X138102017Y-114949366D02*
X138168683Y-115016033D01*
X138168683Y-115016033D02*
X138202017Y-115149366D01*
X138202017Y-115149366D02*
X138202017Y-115382700D01*
X138202017Y-115382700D02*
X138168683Y-115516033D01*
X138168683Y-115516033D02*
X138102017Y-115582700D01*
X138102017Y-115582700D02*
X138035350Y-115616033D01*
X138035350Y-115616033D02*
X137902017Y-115616033D01*
X137902017Y-115616033D02*
X137835350Y-115582700D01*
X137835350Y-115582700D02*
X137768683Y-115516033D01*
X137768683Y-115516033D02*
X137735350Y-115382700D01*
X137735350Y-115382700D02*
X137735350Y-115149366D01*
X137735350Y-115149366D02*
X137768683Y-115016033D01*
X137768683Y-115016033D02*
X137835350Y-114949366D01*
X137835350Y-114949366D02*
X137902017Y-114916033D01*
X138468683Y-114982700D02*
X138502016Y-114949366D01*
X138502016Y-114949366D02*
X138568683Y-114916033D01*
X138568683Y-114916033D02*
X138735350Y-114916033D01*
X138735350Y-114916033D02*
X138802016Y-114949366D01*
X138802016Y-114949366D02*
X138835350Y-114982700D01*
X138835350Y-114982700D02*
X138868683Y-115049366D01*
X138868683Y-115049366D02*
X138868683Y-115116033D01*
X138868683Y-115116033D02*
X138835350Y-115216033D01*
X138835350Y-115216033D02*
X138435350Y-115616033D01*
X138435350Y-115616033D02*
X138868683Y-115616033D01*
X139468683Y-114916033D02*
X139335350Y-114916033D01*
X139335350Y-114916033D02*
X139268683Y-114949366D01*
X139268683Y-114949366D02*
X139235350Y-114982700D01*
X139235350Y-114982700D02*
X139168683Y-115082700D01*
X139168683Y-115082700D02*
X139135350Y-115216033D01*
X139135350Y-115216033D02*
X139135350Y-115482700D01*
X139135350Y-115482700D02*
X139168683Y-115549366D01*
X139168683Y-115549366D02*
X139202017Y-115582700D01*
X139202017Y-115582700D02*
X139268683Y-115616033D01*
X139268683Y-115616033D02*
X139402017Y-115616033D01*
X139402017Y-115616033D02*
X139468683Y-115582700D01*
X139468683Y-115582700D02*
X139502017Y-115549366D01*
X139502017Y-115549366D02*
X139535350Y-115482700D01*
X139535350Y-115482700D02*
X139535350Y-115316033D01*
X139535350Y-115316033D02*
X139502017Y-115249366D01*
X139502017Y-115249366D02*
X139468683Y-115216033D01*
X139468683Y-115216033D02*
X139402017Y-115182700D01*
X139402017Y-115182700D02*
X139268683Y-115182700D01*
X139268683Y-115182700D02*
X139202017Y-115216033D01*
X139202017Y-115216033D02*
X139168683Y-115249366D01*
X139168683Y-115249366D02*
X139135350Y-115316033D01*
X156245601Y-91942438D02*
X156150363Y-91894819D01*
X156150363Y-91894819D02*
X156007506Y-91894819D01*
X156007506Y-91894819D02*
X155864649Y-91942438D01*
X155864649Y-91942438D02*
X155769411Y-92037676D01*
X155769411Y-92037676D02*
X155721792Y-92132914D01*
X155721792Y-92132914D02*
X155674173Y-92323390D01*
X155674173Y-92323390D02*
X155674173Y-92466247D01*
X155674173Y-92466247D02*
X155721792Y-92656723D01*
X155721792Y-92656723D02*
X155769411Y-92751961D01*
X155769411Y-92751961D02*
X155864649Y-92847200D01*
X155864649Y-92847200D02*
X156007506Y-92894819D01*
X156007506Y-92894819D02*
X156102744Y-92894819D01*
X156102744Y-92894819D02*
X156245601Y-92847200D01*
X156245601Y-92847200D02*
X156293220Y-92799580D01*
X156293220Y-92799580D02*
X156293220Y-92466247D01*
X156293220Y-92466247D02*
X156102744Y-92466247D01*
X156721792Y-92894819D02*
X156721792Y-91894819D01*
X156721792Y-91894819D02*
X157293220Y-92894819D01*
X157293220Y-92894819D02*
X157293220Y-91894819D01*
X157769411Y-92894819D02*
X157769411Y-91894819D01*
X157769411Y-91894819D02*
X158007506Y-91894819D01*
X158007506Y-91894819D02*
X158150363Y-91942438D01*
X158150363Y-91942438D02*
X158245601Y-92037676D01*
X158245601Y-92037676D02*
X158293220Y-92132914D01*
X158293220Y-92132914D02*
X158340839Y-92323390D01*
X158340839Y-92323390D02*
X158340839Y-92466247D01*
X158340839Y-92466247D02*
X158293220Y-92656723D01*
X158293220Y-92656723D02*
X158245601Y-92751961D01*
X158245601Y-92751961D02*
X158150363Y-92847200D01*
X158150363Y-92847200D02*
X158007506Y-92894819D01*
X158007506Y-92894819D02*
X157769411Y-92894819D01*
X151764650Y-130189366D02*
X151697983Y-130156033D01*
X151697983Y-130156033D02*
X151597983Y-130156033D01*
X151597983Y-130156033D02*
X151497983Y-130189366D01*
X151497983Y-130189366D02*
X151431317Y-130256033D01*
X151431317Y-130256033D02*
X151397983Y-130322700D01*
X151397983Y-130322700D02*
X151364650Y-130456033D01*
X151364650Y-130456033D02*
X151364650Y-130556033D01*
X151364650Y-130556033D02*
X151397983Y-130689366D01*
X151397983Y-130689366D02*
X151431317Y-130756033D01*
X151431317Y-130756033D02*
X151497983Y-130822700D01*
X151497983Y-130822700D02*
X151597983Y-130856033D01*
X151597983Y-130856033D02*
X151664650Y-130856033D01*
X151664650Y-130856033D02*
X151764650Y-130822700D01*
X151764650Y-130822700D02*
X151797983Y-130789366D01*
X151797983Y-130789366D02*
X151797983Y-130556033D01*
X151797983Y-130556033D02*
X151664650Y-130556033D01*
X152097983Y-130856033D02*
X152097983Y-130156033D01*
X152097983Y-130156033D02*
X152364650Y-130156033D01*
X152364650Y-130156033D02*
X152431317Y-130189366D01*
X152431317Y-130189366D02*
X152464650Y-130222700D01*
X152464650Y-130222700D02*
X152497983Y-130289366D01*
X152497983Y-130289366D02*
X152497983Y-130389366D01*
X152497983Y-130389366D02*
X152464650Y-130456033D01*
X152464650Y-130456033D02*
X152431317Y-130489366D01*
X152431317Y-130489366D02*
X152364650Y-130522700D01*
X152364650Y-130522700D02*
X152097983Y-130522700D01*
X152797983Y-130856033D02*
X152797983Y-130156033D01*
X153264650Y-130156033D02*
X153397983Y-130156033D01*
X153397983Y-130156033D02*
X153464650Y-130189366D01*
X153464650Y-130189366D02*
X153531316Y-130256033D01*
X153531316Y-130256033D02*
X153564650Y-130389366D01*
X153564650Y-130389366D02*
X153564650Y-130622700D01*
X153564650Y-130622700D02*
X153531316Y-130756033D01*
X153531316Y-130756033D02*
X153464650Y-130822700D01*
X153464650Y-130822700D02*
X153397983Y-130856033D01*
X153397983Y-130856033D02*
X153264650Y-130856033D01*
X153264650Y-130856033D02*
X153197983Y-130822700D01*
X153197983Y-130822700D02*
X153131316Y-130756033D01*
X153131316Y-130756033D02*
X153097983Y-130622700D01*
X153097983Y-130622700D02*
X153097983Y-130389366D01*
X153097983Y-130389366D02*
X153131316Y-130256033D01*
X153131316Y-130256033D02*
X153197983Y-130189366D01*
X153197983Y-130189366D02*
X153264650Y-130156033D01*
X154231316Y-130856033D02*
X153831316Y-130856033D01*
X154031316Y-130856033D02*
X154031316Y-130156033D01*
X154031316Y-130156033D02*
X153964649Y-130256033D01*
X153964649Y-130256033D02*
X153897983Y-130322700D01*
X153897983Y-130322700D02*
X153831316Y-130356033D01*
X154864650Y-130156033D02*
X154531316Y-130156033D01*
X154531316Y-130156033D02*
X154497983Y-130489366D01*
X154497983Y-130489366D02*
X154531316Y-130456033D01*
X154531316Y-130456033D02*
X154597983Y-130422700D01*
X154597983Y-130422700D02*
X154764650Y-130422700D01*
X154764650Y-130422700D02*
X154831316Y-130456033D01*
X154831316Y-130456033D02*
X154864650Y-130489366D01*
X154864650Y-130489366D02*
X154897983Y-130556033D01*
X154897983Y-130556033D02*
X154897983Y-130722700D01*
X154897983Y-130722700D02*
X154864650Y-130789366D01*
X154864650Y-130789366D02*
X154831316Y-130822700D01*
X154831316Y-130822700D02*
X154764650Y-130856033D01*
X154764650Y-130856033D02*
X154597983Y-130856033D01*
X154597983Y-130856033D02*
X154531316Y-130822700D01*
X154531316Y-130822700D02*
X154497983Y-130789366D01*
X155697983Y-130122700D02*
X155097983Y-131022700D01*
X155931316Y-130856033D02*
X155931316Y-130156033D01*
X155931316Y-130156033D02*
X156164650Y-130656033D01*
X156164650Y-130656033D02*
X156397983Y-130156033D01*
X156397983Y-130156033D02*
X156397983Y-130856033D01*
X156631316Y-130156033D02*
X157031316Y-130156033D01*
X156831316Y-130856033D02*
X156831316Y-130156033D01*
X157264649Y-130856033D02*
X157264649Y-130156033D01*
X157264649Y-130156033D02*
X157431316Y-130156033D01*
X157431316Y-130156033D02*
X157531316Y-130189366D01*
X157531316Y-130189366D02*
X157597983Y-130256033D01*
X157597983Y-130256033D02*
X157631316Y-130322700D01*
X157631316Y-130322700D02*
X157664649Y-130456033D01*
X157664649Y-130456033D02*
X157664649Y-130556033D01*
X157664649Y-130556033D02*
X157631316Y-130689366D01*
X157631316Y-130689366D02*
X157597983Y-130756033D01*
X157597983Y-130756033D02*
X157531316Y-130822700D01*
X157531316Y-130822700D02*
X157431316Y-130856033D01*
X157431316Y-130856033D02*
X157264649Y-130856033D01*
X158097983Y-130156033D02*
X158231316Y-130156033D01*
X158231316Y-130156033D02*
X158297983Y-130189366D01*
X158297983Y-130189366D02*
X158364649Y-130256033D01*
X158364649Y-130256033D02*
X158397983Y-130389366D01*
X158397983Y-130389366D02*
X158397983Y-130622700D01*
X158397983Y-130622700D02*
X158364649Y-130756033D01*
X158364649Y-130756033D02*
X158297983Y-130822700D01*
X158297983Y-130822700D02*
X158231316Y-130856033D01*
X158231316Y-130856033D02*
X158097983Y-130856033D01*
X158097983Y-130856033D02*
X158031316Y-130822700D01*
X158031316Y-130822700D02*
X157964649Y-130756033D01*
X157964649Y-130756033D02*
X157931316Y-130622700D01*
X157931316Y-130622700D02*
X157931316Y-130389366D01*
X157931316Y-130389366D02*
X157964649Y-130256033D01*
X157964649Y-130256033D02*
X158031316Y-130189366D01*
X158031316Y-130189366D02*
X158097983Y-130156033D01*
X136402017Y-117489366D02*
X136335350Y-117456033D01*
X136335350Y-117456033D02*
X136235350Y-117456033D01*
X136235350Y-117456033D02*
X136135350Y-117489366D01*
X136135350Y-117489366D02*
X136068684Y-117556033D01*
X136068684Y-117556033D02*
X136035350Y-117622700D01*
X136035350Y-117622700D02*
X136002017Y-117756033D01*
X136002017Y-117756033D02*
X136002017Y-117856033D01*
X136002017Y-117856033D02*
X136035350Y-117989366D01*
X136035350Y-117989366D02*
X136068684Y-118056033D01*
X136068684Y-118056033D02*
X136135350Y-118122700D01*
X136135350Y-118122700D02*
X136235350Y-118156033D01*
X136235350Y-118156033D02*
X136302017Y-118156033D01*
X136302017Y-118156033D02*
X136402017Y-118122700D01*
X136402017Y-118122700D02*
X136435350Y-118089366D01*
X136435350Y-118089366D02*
X136435350Y-117856033D01*
X136435350Y-117856033D02*
X136302017Y-117856033D01*
X136735350Y-118156033D02*
X136735350Y-117456033D01*
X136735350Y-117456033D02*
X137002017Y-117456033D01*
X137002017Y-117456033D02*
X137068684Y-117489366D01*
X137068684Y-117489366D02*
X137102017Y-117522700D01*
X137102017Y-117522700D02*
X137135350Y-117589366D01*
X137135350Y-117589366D02*
X137135350Y-117689366D01*
X137135350Y-117689366D02*
X137102017Y-117756033D01*
X137102017Y-117756033D02*
X137068684Y-117789366D01*
X137068684Y-117789366D02*
X137002017Y-117822700D01*
X137002017Y-117822700D02*
X136735350Y-117822700D01*
X137435350Y-118156033D02*
X137435350Y-117456033D01*
X137902017Y-117456033D02*
X138035350Y-117456033D01*
X138035350Y-117456033D02*
X138102017Y-117489366D01*
X138102017Y-117489366D02*
X138168683Y-117556033D01*
X138168683Y-117556033D02*
X138202017Y-117689366D01*
X138202017Y-117689366D02*
X138202017Y-117922700D01*
X138202017Y-117922700D02*
X138168683Y-118056033D01*
X138168683Y-118056033D02*
X138102017Y-118122700D01*
X138102017Y-118122700D02*
X138035350Y-118156033D01*
X138035350Y-118156033D02*
X137902017Y-118156033D01*
X137902017Y-118156033D02*
X137835350Y-118122700D01*
X137835350Y-118122700D02*
X137768683Y-118056033D01*
X137768683Y-118056033D02*
X137735350Y-117922700D01*
X137735350Y-117922700D02*
X137735350Y-117689366D01*
X137735350Y-117689366D02*
X137768683Y-117556033D01*
X137768683Y-117556033D02*
X137835350Y-117489366D01*
X137835350Y-117489366D02*
X137902017Y-117456033D01*
X138468683Y-117522700D02*
X138502016Y-117489366D01*
X138502016Y-117489366D02*
X138568683Y-117456033D01*
X138568683Y-117456033D02*
X138735350Y-117456033D01*
X138735350Y-117456033D02*
X138802016Y-117489366D01*
X138802016Y-117489366D02*
X138835350Y-117522700D01*
X138835350Y-117522700D02*
X138868683Y-117589366D01*
X138868683Y-117589366D02*
X138868683Y-117656033D01*
X138868683Y-117656033D02*
X138835350Y-117756033D01*
X138835350Y-117756033D02*
X138435350Y-118156033D01*
X138435350Y-118156033D02*
X138868683Y-118156033D01*
X139102017Y-117456033D02*
X139568683Y-117456033D01*
X139568683Y-117456033D02*
X139268683Y-118156033D01*
X136435350Y-135869366D02*
X136402017Y-135902700D01*
X136402017Y-135902700D02*
X136302017Y-135936033D01*
X136302017Y-135936033D02*
X136235350Y-135936033D01*
X136235350Y-135936033D02*
X136135350Y-135902700D01*
X136135350Y-135902700D02*
X136068684Y-135836033D01*
X136068684Y-135836033D02*
X136035350Y-135769366D01*
X136035350Y-135769366D02*
X136002017Y-135636033D01*
X136002017Y-135636033D02*
X136002017Y-135536033D01*
X136002017Y-135536033D02*
X136035350Y-135402700D01*
X136035350Y-135402700D02*
X136068684Y-135336033D01*
X136068684Y-135336033D02*
X136135350Y-135269366D01*
X136135350Y-135269366D02*
X136235350Y-135236033D01*
X136235350Y-135236033D02*
X136302017Y-135236033D01*
X136302017Y-135236033D02*
X136402017Y-135269366D01*
X136402017Y-135269366D02*
X136435350Y-135302700D01*
X136735350Y-135936033D02*
X136735350Y-135236033D01*
X136735350Y-135236033D02*
X136968684Y-135736033D01*
X136968684Y-135736033D02*
X137202017Y-135236033D01*
X137202017Y-135236033D02*
X137202017Y-135936033D01*
X137535350Y-135936033D02*
X137535350Y-135236033D01*
X137535350Y-135236033D02*
X137702017Y-135236033D01*
X137702017Y-135236033D02*
X137802017Y-135269366D01*
X137802017Y-135269366D02*
X137868684Y-135336033D01*
X137868684Y-135336033D02*
X137902017Y-135402700D01*
X137902017Y-135402700D02*
X137935350Y-135536033D01*
X137935350Y-135536033D02*
X137935350Y-135636033D01*
X137935350Y-135636033D02*
X137902017Y-135769366D01*
X137902017Y-135769366D02*
X137868684Y-135836033D01*
X137868684Y-135836033D02*
X137802017Y-135902700D01*
X137802017Y-135902700D02*
X137702017Y-135936033D01*
X137702017Y-135936033D02*
X137535350Y-135936033D01*
X156245601Y-107182438D02*
X156150363Y-107134819D01*
X156150363Y-107134819D02*
X156007506Y-107134819D01*
X156007506Y-107134819D02*
X155864649Y-107182438D01*
X155864649Y-107182438D02*
X155769411Y-107277676D01*
X155769411Y-107277676D02*
X155721792Y-107372914D01*
X155721792Y-107372914D02*
X155674173Y-107563390D01*
X155674173Y-107563390D02*
X155674173Y-107706247D01*
X155674173Y-107706247D02*
X155721792Y-107896723D01*
X155721792Y-107896723D02*
X155769411Y-107991961D01*
X155769411Y-107991961D02*
X155864649Y-108087200D01*
X155864649Y-108087200D02*
X156007506Y-108134819D01*
X156007506Y-108134819D02*
X156102744Y-108134819D01*
X156102744Y-108134819D02*
X156245601Y-108087200D01*
X156245601Y-108087200D02*
X156293220Y-108039580D01*
X156293220Y-108039580D02*
X156293220Y-107706247D01*
X156293220Y-107706247D02*
X156102744Y-107706247D01*
X156721792Y-108134819D02*
X156721792Y-107134819D01*
X156721792Y-107134819D02*
X157293220Y-108134819D01*
X157293220Y-108134819D02*
X157293220Y-107134819D01*
X157769411Y-108134819D02*
X157769411Y-107134819D01*
X157769411Y-107134819D02*
X158007506Y-107134819D01*
X158007506Y-107134819D02*
X158150363Y-107182438D01*
X158150363Y-107182438D02*
X158245601Y-107277676D01*
X158245601Y-107277676D02*
X158293220Y-107372914D01*
X158293220Y-107372914D02*
X158340839Y-107563390D01*
X158340839Y-107563390D02*
X158340839Y-107706247D01*
X158340839Y-107706247D02*
X158293220Y-107896723D01*
X158293220Y-107896723D02*
X158245601Y-107991961D01*
X158245601Y-107991961D02*
X158150363Y-108087200D01*
X158150363Y-108087200D02*
X158007506Y-108134819D01*
X158007506Y-108134819D02*
X157769411Y-108134819D01*
X155931316Y-122569366D02*
X155864649Y-122536033D01*
X155864649Y-122536033D02*
X155764649Y-122536033D01*
X155764649Y-122536033D02*
X155664649Y-122569366D01*
X155664649Y-122569366D02*
X155597983Y-122636033D01*
X155597983Y-122636033D02*
X155564649Y-122702700D01*
X155564649Y-122702700D02*
X155531316Y-122836033D01*
X155531316Y-122836033D02*
X155531316Y-122936033D01*
X155531316Y-122936033D02*
X155564649Y-123069366D01*
X155564649Y-123069366D02*
X155597983Y-123136033D01*
X155597983Y-123136033D02*
X155664649Y-123202700D01*
X155664649Y-123202700D02*
X155764649Y-123236033D01*
X155764649Y-123236033D02*
X155831316Y-123236033D01*
X155831316Y-123236033D02*
X155931316Y-123202700D01*
X155931316Y-123202700D02*
X155964649Y-123169366D01*
X155964649Y-123169366D02*
X155964649Y-122936033D01*
X155964649Y-122936033D02*
X155831316Y-122936033D01*
X156264649Y-123236033D02*
X156264649Y-122536033D01*
X156264649Y-122536033D02*
X156531316Y-122536033D01*
X156531316Y-122536033D02*
X156597983Y-122569366D01*
X156597983Y-122569366D02*
X156631316Y-122602700D01*
X156631316Y-122602700D02*
X156664649Y-122669366D01*
X156664649Y-122669366D02*
X156664649Y-122769366D01*
X156664649Y-122769366D02*
X156631316Y-122836033D01*
X156631316Y-122836033D02*
X156597983Y-122869366D01*
X156597983Y-122869366D02*
X156531316Y-122902700D01*
X156531316Y-122902700D02*
X156264649Y-122902700D01*
X156964649Y-123236033D02*
X156964649Y-122536033D01*
X157431316Y-122536033D02*
X157564649Y-122536033D01*
X157564649Y-122536033D02*
X157631316Y-122569366D01*
X157631316Y-122569366D02*
X157697982Y-122636033D01*
X157697982Y-122636033D02*
X157731316Y-122769366D01*
X157731316Y-122769366D02*
X157731316Y-123002700D01*
X157731316Y-123002700D02*
X157697982Y-123136033D01*
X157697982Y-123136033D02*
X157631316Y-123202700D01*
X157631316Y-123202700D02*
X157564649Y-123236033D01*
X157564649Y-123236033D02*
X157431316Y-123236033D01*
X157431316Y-123236033D02*
X157364649Y-123202700D01*
X157364649Y-123202700D02*
X157297982Y-123136033D01*
X157297982Y-123136033D02*
X157264649Y-123002700D01*
X157264649Y-123002700D02*
X157264649Y-122769366D01*
X157264649Y-122769366D02*
X157297982Y-122636033D01*
X157297982Y-122636033D02*
X157364649Y-122569366D01*
X157364649Y-122569366D02*
X157431316Y-122536033D01*
X158331315Y-122769366D02*
X158331315Y-123236033D01*
X158164649Y-122502700D02*
X157997982Y-123002700D01*
X157997982Y-123002700D02*
X158431315Y-123002700D01*
X136630588Y-124962438D02*
X136535350Y-124914819D01*
X136535350Y-124914819D02*
X136392493Y-124914819D01*
X136392493Y-124914819D02*
X136249636Y-124962438D01*
X136249636Y-124962438D02*
X136154398Y-125057676D01*
X136154398Y-125057676D02*
X136106779Y-125152914D01*
X136106779Y-125152914D02*
X136059160Y-125343390D01*
X136059160Y-125343390D02*
X136059160Y-125486247D01*
X136059160Y-125486247D02*
X136106779Y-125676723D01*
X136106779Y-125676723D02*
X136154398Y-125771961D01*
X136154398Y-125771961D02*
X136249636Y-125867200D01*
X136249636Y-125867200D02*
X136392493Y-125914819D01*
X136392493Y-125914819D02*
X136487731Y-125914819D01*
X136487731Y-125914819D02*
X136630588Y-125867200D01*
X136630588Y-125867200D02*
X136678207Y-125819580D01*
X136678207Y-125819580D02*
X136678207Y-125486247D01*
X136678207Y-125486247D02*
X136487731Y-125486247D01*
X137106779Y-125914819D02*
X137106779Y-124914819D01*
X137106779Y-124914819D02*
X137678207Y-125914819D01*
X137678207Y-125914819D02*
X137678207Y-124914819D01*
X138154398Y-125914819D02*
X138154398Y-124914819D01*
X138154398Y-124914819D02*
X138392493Y-124914819D01*
X138392493Y-124914819D02*
X138535350Y-124962438D01*
X138535350Y-124962438D02*
X138630588Y-125057676D01*
X138630588Y-125057676D02*
X138678207Y-125152914D01*
X138678207Y-125152914D02*
X138725826Y-125343390D01*
X138725826Y-125343390D02*
X138725826Y-125486247D01*
X138725826Y-125486247D02*
X138678207Y-125676723D01*
X138678207Y-125676723D02*
X138630588Y-125771961D01*
X138630588Y-125771961D02*
X138535350Y-125867200D01*
X138535350Y-125867200D02*
X138392493Y-125914819D01*
X138392493Y-125914819D02*
X138154398Y-125914819D01*
X135935350Y-97136033D02*
X136168684Y-97836033D01*
X136168684Y-97836033D02*
X136402017Y-97136033D01*
X136635350Y-97836033D02*
X136635350Y-97136033D01*
X136635350Y-97136033D02*
X136902017Y-97136033D01*
X136902017Y-97136033D02*
X136968684Y-97169366D01*
X136968684Y-97169366D02*
X137002017Y-97202700D01*
X137002017Y-97202700D02*
X137035350Y-97269366D01*
X137035350Y-97269366D02*
X137035350Y-97369366D01*
X137035350Y-97369366D02*
X137002017Y-97436033D01*
X137002017Y-97436033D02*
X136968684Y-97469366D01*
X136968684Y-97469366D02*
X136902017Y-97502700D01*
X136902017Y-97502700D02*
X136635350Y-97502700D01*
X137835350Y-97102700D02*
X137235350Y-98002700D01*
X138435350Y-97169366D02*
X138368683Y-97136033D01*
X138368683Y-97136033D02*
X138268683Y-97136033D01*
X138268683Y-97136033D02*
X138168683Y-97169366D01*
X138168683Y-97169366D02*
X138102017Y-97236033D01*
X138102017Y-97236033D02*
X138068683Y-97302700D01*
X138068683Y-97302700D02*
X138035350Y-97436033D01*
X138035350Y-97436033D02*
X138035350Y-97536033D01*
X138035350Y-97536033D02*
X138068683Y-97669366D01*
X138068683Y-97669366D02*
X138102017Y-97736033D01*
X138102017Y-97736033D02*
X138168683Y-97802700D01*
X138168683Y-97802700D02*
X138268683Y-97836033D01*
X138268683Y-97836033D02*
X138335350Y-97836033D01*
X138335350Y-97836033D02*
X138435350Y-97802700D01*
X138435350Y-97802700D02*
X138468683Y-97769366D01*
X138468683Y-97769366D02*
X138468683Y-97536033D01*
X138468683Y-97536033D02*
X138335350Y-97536033D01*
X138768683Y-97836033D02*
X138768683Y-97136033D01*
X138768683Y-97136033D02*
X139035350Y-97136033D01*
X139035350Y-97136033D02*
X139102017Y-97169366D01*
X139102017Y-97169366D02*
X139135350Y-97202700D01*
X139135350Y-97202700D02*
X139168683Y-97269366D01*
X139168683Y-97269366D02*
X139168683Y-97369366D01*
X139168683Y-97369366D02*
X139135350Y-97436033D01*
X139135350Y-97436033D02*
X139102017Y-97469366D01*
X139102017Y-97469366D02*
X139035350Y-97502700D01*
X139035350Y-97502700D02*
X138768683Y-97502700D01*
X139468683Y-97836033D02*
X139468683Y-97136033D01*
X139935350Y-97136033D02*
X140068683Y-97136033D01*
X140068683Y-97136033D02*
X140135350Y-97169366D01*
X140135350Y-97169366D02*
X140202016Y-97236033D01*
X140202016Y-97236033D02*
X140235350Y-97369366D01*
X140235350Y-97369366D02*
X140235350Y-97602700D01*
X140235350Y-97602700D02*
X140202016Y-97736033D01*
X140202016Y-97736033D02*
X140135350Y-97802700D01*
X140135350Y-97802700D02*
X140068683Y-97836033D01*
X140068683Y-97836033D02*
X139935350Y-97836033D01*
X139935350Y-97836033D02*
X139868683Y-97802700D01*
X139868683Y-97802700D02*
X139802016Y-97736033D01*
X139802016Y-97736033D02*
X139768683Y-97602700D01*
X139768683Y-97602700D02*
X139768683Y-97369366D01*
X139768683Y-97369366D02*
X139802016Y-97236033D01*
X139802016Y-97236033D02*
X139868683Y-97169366D01*
X139868683Y-97169366D02*
X139935350Y-97136033D01*
X140468683Y-97136033D02*
X140902016Y-97136033D01*
X140902016Y-97136033D02*
X140668683Y-97402700D01*
X140668683Y-97402700D02*
X140768683Y-97402700D01*
X140768683Y-97402700D02*
X140835349Y-97436033D01*
X140835349Y-97436033D02*
X140868683Y-97469366D01*
X140868683Y-97469366D02*
X140902016Y-97536033D01*
X140902016Y-97536033D02*
X140902016Y-97702700D01*
X140902016Y-97702700D02*
X140868683Y-97769366D01*
X140868683Y-97769366D02*
X140835349Y-97802700D01*
X140835349Y-97802700D02*
X140768683Y-97836033D01*
X140768683Y-97836033D02*
X140568683Y-97836033D01*
X140568683Y-97836033D02*
X140502016Y-97802700D01*
X140502016Y-97802700D02*
X140468683Y-97769366D01*
X141502016Y-97136033D02*
X141368683Y-97136033D01*
X141368683Y-97136033D02*
X141302016Y-97169366D01*
X141302016Y-97169366D02*
X141268683Y-97202700D01*
X141268683Y-97202700D02*
X141202016Y-97302700D01*
X141202016Y-97302700D02*
X141168683Y-97436033D01*
X141168683Y-97436033D02*
X141168683Y-97702700D01*
X141168683Y-97702700D02*
X141202016Y-97769366D01*
X141202016Y-97769366D02*
X141235350Y-97802700D01*
X141235350Y-97802700D02*
X141302016Y-97836033D01*
X141302016Y-97836033D02*
X141435350Y-97836033D01*
X141435350Y-97836033D02*
X141502016Y-97802700D01*
X141502016Y-97802700D02*
X141535350Y-97769366D01*
X141535350Y-97769366D02*
X141568683Y-97702700D01*
X141568683Y-97702700D02*
X141568683Y-97536033D01*
X141568683Y-97536033D02*
X141535350Y-97469366D01*
X141535350Y-97469366D02*
X141502016Y-97436033D01*
X141502016Y-97436033D02*
X141435350Y-97402700D01*
X141435350Y-97402700D02*
X141302016Y-97402700D01*
X141302016Y-97402700D02*
X141235350Y-97436033D01*
X141235350Y-97436033D02*
X141202016Y-97469366D01*
X141202016Y-97469366D02*
X141168683Y-97536033D01*
X136402017Y-112409366D02*
X136335350Y-112376033D01*
X136335350Y-112376033D02*
X136235350Y-112376033D01*
X136235350Y-112376033D02*
X136135350Y-112409366D01*
X136135350Y-112409366D02*
X136068684Y-112476033D01*
X136068684Y-112476033D02*
X136035350Y-112542700D01*
X136035350Y-112542700D02*
X136002017Y-112676033D01*
X136002017Y-112676033D02*
X136002017Y-112776033D01*
X136002017Y-112776033D02*
X136035350Y-112909366D01*
X136035350Y-112909366D02*
X136068684Y-112976033D01*
X136068684Y-112976033D02*
X136135350Y-113042700D01*
X136135350Y-113042700D02*
X136235350Y-113076033D01*
X136235350Y-113076033D02*
X136302017Y-113076033D01*
X136302017Y-113076033D02*
X136402017Y-113042700D01*
X136402017Y-113042700D02*
X136435350Y-113009366D01*
X136435350Y-113009366D02*
X136435350Y-112776033D01*
X136435350Y-112776033D02*
X136302017Y-112776033D01*
X136735350Y-113076033D02*
X136735350Y-112376033D01*
X136735350Y-112376033D02*
X137002017Y-112376033D01*
X137002017Y-112376033D02*
X137068684Y-112409366D01*
X137068684Y-112409366D02*
X137102017Y-112442700D01*
X137102017Y-112442700D02*
X137135350Y-112509366D01*
X137135350Y-112509366D02*
X137135350Y-112609366D01*
X137135350Y-112609366D02*
X137102017Y-112676033D01*
X137102017Y-112676033D02*
X137068684Y-112709366D01*
X137068684Y-112709366D02*
X137002017Y-112742700D01*
X137002017Y-112742700D02*
X136735350Y-112742700D01*
X137435350Y-113076033D02*
X137435350Y-112376033D01*
X137902017Y-112376033D02*
X138035350Y-112376033D01*
X138035350Y-112376033D02*
X138102017Y-112409366D01*
X138102017Y-112409366D02*
X138168683Y-112476033D01*
X138168683Y-112476033D02*
X138202017Y-112609366D01*
X138202017Y-112609366D02*
X138202017Y-112842700D01*
X138202017Y-112842700D02*
X138168683Y-112976033D01*
X138168683Y-112976033D02*
X138102017Y-113042700D01*
X138102017Y-113042700D02*
X138035350Y-113076033D01*
X138035350Y-113076033D02*
X137902017Y-113076033D01*
X137902017Y-113076033D02*
X137835350Y-113042700D01*
X137835350Y-113042700D02*
X137768683Y-112976033D01*
X137768683Y-112976033D02*
X137735350Y-112842700D01*
X137735350Y-112842700D02*
X137735350Y-112609366D01*
X137735350Y-112609366D02*
X137768683Y-112476033D01*
X137768683Y-112476033D02*
X137835350Y-112409366D01*
X137835350Y-112409366D02*
X137902017Y-112376033D01*
X138468683Y-112442700D02*
X138502016Y-112409366D01*
X138502016Y-112409366D02*
X138568683Y-112376033D01*
X138568683Y-112376033D02*
X138735350Y-112376033D01*
X138735350Y-112376033D02*
X138802016Y-112409366D01*
X138802016Y-112409366D02*
X138835350Y-112442700D01*
X138835350Y-112442700D02*
X138868683Y-112509366D01*
X138868683Y-112509366D02*
X138868683Y-112576033D01*
X138868683Y-112576033D02*
X138835350Y-112676033D01*
X138835350Y-112676033D02*
X138435350Y-113076033D01*
X138435350Y-113076033D02*
X138868683Y-113076033D01*
X139502017Y-112376033D02*
X139168683Y-112376033D01*
X139168683Y-112376033D02*
X139135350Y-112709366D01*
X139135350Y-112709366D02*
X139168683Y-112676033D01*
X139168683Y-112676033D02*
X139235350Y-112642700D01*
X139235350Y-112642700D02*
X139402017Y-112642700D01*
X139402017Y-112642700D02*
X139468683Y-112676033D01*
X139468683Y-112676033D02*
X139502017Y-112709366D01*
X139502017Y-112709366D02*
X139535350Y-112776033D01*
X139535350Y-112776033D02*
X139535350Y-112942700D01*
X139535350Y-112942700D02*
X139502017Y-113009366D01*
X139502017Y-113009366D02*
X139468683Y-113042700D01*
X139468683Y-113042700D02*
X139402017Y-113076033D01*
X139402017Y-113076033D02*
X139235350Y-113076033D01*
X139235350Y-113076033D02*
X139168683Y-113042700D01*
X139168683Y-113042700D02*
X139135350Y-113009366D01*
X136001921Y-94908289D02*
X136335254Y-94908289D01*
X136478111Y-95432099D02*
X136001921Y-95432099D01*
X136001921Y-95432099D02*
X136001921Y-94432099D01*
X136001921Y-94432099D02*
X136478111Y-94432099D01*
X136906683Y-95432099D02*
X136906683Y-94432099D01*
X136906683Y-94432099D02*
X137478111Y-95432099D01*
X137478111Y-95432099D02*
X137478111Y-94432099D01*
X138668587Y-94384480D02*
X137811445Y-95670194D01*
X139573349Y-95432099D02*
X139240016Y-94955908D01*
X139001921Y-95432099D02*
X139001921Y-94432099D01*
X139001921Y-94432099D02*
X139382873Y-94432099D01*
X139382873Y-94432099D02*
X139478111Y-94479718D01*
X139478111Y-94479718D02*
X139525730Y-94527337D01*
X139525730Y-94527337D02*
X139573349Y-94622575D01*
X139573349Y-94622575D02*
X139573349Y-94765432D01*
X139573349Y-94765432D02*
X139525730Y-94860670D01*
X139525730Y-94860670D02*
X139478111Y-94908289D01*
X139478111Y-94908289D02*
X139382873Y-94955908D01*
X139382873Y-94955908D02*
X139001921Y-94955908D01*
X140001921Y-94908289D02*
X140335254Y-94908289D01*
X140478111Y-95432099D02*
X140001921Y-95432099D01*
X140001921Y-95432099D02*
X140001921Y-94432099D01*
X140001921Y-94432099D02*
X140478111Y-94432099D01*
X140859064Y-95384480D02*
X141001921Y-95432099D01*
X141001921Y-95432099D02*
X141240016Y-95432099D01*
X141240016Y-95432099D02*
X141335254Y-95384480D01*
X141335254Y-95384480D02*
X141382873Y-95336860D01*
X141382873Y-95336860D02*
X141430492Y-95241622D01*
X141430492Y-95241622D02*
X141430492Y-95146384D01*
X141430492Y-95146384D02*
X141382873Y-95051146D01*
X141382873Y-95051146D02*
X141335254Y-95003527D01*
X141335254Y-95003527D02*
X141240016Y-94955908D01*
X141240016Y-94955908D02*
X141049540Y-94908289D01*
X141049540Y-94908289D02*
X140954302Y-94860670D01*
X140954302Y-94860670D02*
X140906683Y-94813051D01*
X140906683Y-94813051D02*
X140859064Y-94717813D01*
X140859064Y-94717813D02*
X140859064Y-94622575D01*
X140859064Y-94622575D02*
X140906683Y-94527337D01*
X140906683Y-94527337D02*
X140954302Y-94479718D01*
X140954302Y-94479718D02*
X141049540Y-94432099D01*
X141049540Y-94432099D02*
X141287635Y-94432099D01*
X141287635Y-94432099D02*
X141430492Y-94479718D01*
X141859064Y-94908289D02*
X142192397Y-94908289D01*
X142335254Y-95432099D02*
X141859064Y-95432099D01*
X141859064Y-95432099D02*
X141859064Y-94432099D01*
X141859064Y-94432099D02*
X142335254Y-94432099D01*
X142620969Y-94432099D02*
X143192397Y-94432099D01*
X142906683Y-95432099D02*
X142906683Y-94432099D01*
X136402017Y-127649366D02*
X136335350Y-127616033D01*
X136335350Y-127616033D02*
X136235350Y-127616033D01*
X136235350Y-127616033D02*
X136135350Y-127649366D01*
X136135350Y-127649366D02*
X136068684Y-127716033D01*
X136068684Y-127716033D02*
X136035350Y-127782700D01*
X136035350Y-127782700D02*
X136002017Y-127916033D01*
X136002017Y-127916033D02*
X136002017Y-128016033D01*
X136002017Y-128016033D02*
X136035350Y-128149366D01*
X136035350Y-128149366D02*
X136068684Y-128216033D01*
X136068684Y-128216033D02*
X136135350Y-128282700D01*
X136135350Y-128282700D02*
X136235350Y-128316033D01*
X136235350Y-128316033D02*
X136302017Y-128316033D01*
X136302017Y-128316033D02*
X136402017Y-128282700D01*
X136402017Y-128282700D02*
X136435350Y-128249366D01*
X136435350Y-128249366D02*
X136435350Y-128016033D01*
X136435350Y-128016033D02*
X136302017Y-128016033D01*
X136735350Y-128316033D02*
X136735350Y-127616033D01*
X136735350Y-127616033D02*
X137002017Y-127616033D01*
X137002017Y-127616033D02*
X137068684Y-127649366D01*
X137068684Y-127649366D02*
X137102017Y-127682700D01*
X137102017Y-127682700D02*
X137135350Y-127749366D01*
X137135350Y-127749366D02*
X137135350Y-127849366D01*
X137135350Y-127849366D02*
X137102017Y-127916033D01*
X137102017Y-127916033D02*
X137068684Y-127949366D01*
X137068684Y-127949366D02*
X137002017Y-127982700D01*
X137002017Y-127982700D02*
X136735350Y-127982700D01*
X137435350Y-128316033D02*
X137435350Y-127616033D01*
X137902017Y-127616033D02*
X138035350Y-127616033D01*
X138035350Y-127616033D02*
X138102017Y-127649366D01*
X138102017Y-127649366D02*
X138168683Y-127716033D01*
X138168683Y-127716033D02*
X138202017Y-127849366D01*
X138202017Y-127849366D02*
X138202017Y-128082700D01*
X138202017Y-128082700D02*
X138168683Y-128216033D01*
X138168683Y-128216033D02*
X138102017Y-128282700D01*
X138102017Y-128282700D02*
X138035350Y-128316033D01*
X138035350Y-128316033D02*
X137902017Y-128316033D01*
X137902017Y-128316033D02*
X137835350Y-128282700D01*
X137835350Y-128282700D02*
X137768683Y-128216033D01*
X137768683Y-128216033D02*
X137735350Y-128082700D01*
X137735350Y-128082700D02*
X137735350Y-127849366D01*
X137735350Y-127849366D02*
X137768683Y-127716033D01*
X137768683Y-127716033D02*
X137835350Y-127649366D01*
X137835350Y-127649366D02*
X137902017Y-127616033D01*
X138868683Y-128316033D02*
X138468683Y-128316033D01*
X138668683Y-128316033D02*
X138668683Y-127616033D01*
X138668683Y-127616033D02*
X138602016Y-127716033D01*
X138602016Y-127716033D02*
X138535350Y-127782700D01*
X138535350Y-127782700D02*
X138468683Y-127816033D01*
X139102017Y-127616033D02*
X139535350Y-127616033D01*
X139535350Y-127616033D02*
X139302017Y-127882700D01*
X139302017Y-127882700D02*
X139402017Y-127882700D01*
X139402017Y-127882700D02*
X139468683Y-127916033D01*
X139468683Y-127916033D02*
X139502017Y-127949366D01*
X139502017Y-127949366D02*
X139535350Y-128016033D01*
X139535350Y-128016033D02*
X139535350Y-128182700D01*
X139535350Y-128182700D02*
X139502017Y-128249366D01*
X139502017Y-128249366D02*
X139468683Y-128282700D01*
X139468683Y-128282700D02*
X139402017Y-128316033D01*
X139402017Y-128316033D02*
X139202017Y-128316033D01*
X139202017Y-128316033D02*
X139135350Y-128282700D01*
X139135350Y-128282700D02*
X139102017Y-128249366D01*
X140335350Y-127582700D02*
X139735350Y-128482700D01*
X140568683Y-128316033D02*
X140568683Y-127616033D01*
X140568683Y-127616033D02*
X140802017Y-128116033D01*
X140802017Y-128116033D02*
X141035350Y-127616033D01*
X141035350Y-127616033D02*
X141035350Y-128316033D01*
X141268683Y-127616033D02*
X141668683Y-127616033D01*
X141468683Y-128316033D02*
X141468683Y-127616033D01*
X142302016Y-128249366D02*
X142268683Y-128282700D01*
X142268683Y-128282700D02*
X142168683Y-128316033D01*
X142168683Y-128316033D02*
X142102016Y-128316033D01*
X142102016Y-128316033D02*
X142002016Y-128282700D01*
X142002016Y-128282700D02*
X141935350Y-128216033D01*
X141935350Y-128216033D02*
X141902016Y-128149366D01*
X141902016Y-128149366D02*
X141868683Y-128016033D01*
X141868683Y-128016033D02*
X141868683Y-127916033D01*
X141868683Y-127916033D02*
X141902016Y-127782700D01*
X141902016Y-127782700D02*
X141935350Y-127716033D01*
X141935350Y-127716033D02*
X142002016Y-127649366D01*
X142002016Y-127649366D02*
X142102016Y-127616033D01*
X142102016Y-127616033D02*
X142168683Y-127616033D01*
X142168683Y-127616033D02*
X142268683Y-127649366D01*
X142268683Y-127649366D02*
X142302016Y-127682700D01*
X142602016Y-128316033D02*
X142602016Y-127616033D01*
X143002016Y-128316033D02*
X142702016Y-127916033D01*
X143002016Y-127616033D02*
X142602016Y-128016033D01*
X136402017Y-122569366D02*
X136335350Y-122536033D01*
X136335350Y-122536033D02*
X136235350Y-122536033D01*
X136235350Y-122536033D02*
X136135350Y-122569366D01*
X136135350Y-122569366D02*
X136068684Y-122636033D01*
X136068684Y-122636033D02*
X136035350Y-122702700D01*
X136035350Y-122702700D02*
X136002017Y-122836033D01*
X136002017Y-122836033D02*
X136002017Y-122936033D01*
X136002017Y-122936033D02*
X136035350Y-123069366D01*
X136035350Y-123069366D02*
X136068684Y-123136033D01*
X136068684Y-123136033D02*
X136135350Y-123202700D01*
X136135350Y-123202700D02*
X136235350Y-123236033D01*
X136235350Y-123236033D02*
X136302017Y-123236033D01*
X136302017Y-123236033D02*
X136402017Y-123202700D01*
X136402017Y-123202700D02*
X136435350Y-123169366D01*
X136435350Y-123169366D02*
X136435350Y-122936033D01*
X136435350Y-122936033D02*
X136302017Y-122936033D01*
X136735350Y-123236033D02*
X136735350Y-122536033D01*
X136735350Y-122536033D02*
X137002017Y-122536033D01*
X137002017Y-122536033D02*
X137068684Y-122569366D01*
X137068684Y-122569366D02*
X137102017Y-122602700D01*
X137102017Y-122602700D02*
X137135350Y-122669366D01*
X137135350Y-122669366D02*
X137135350Y-122769366D01*
X137135350Y-122769366D02*
X137102017Y-122836033D01*
X137102017Y-122836033D02*
X137068684Y-122869366D01*
X137068684Y-122869366D02*
X137002017Y-122902700D01*
X137002017Y-122902700D02*
X136735350Y-122902700D01*
X137435350Y-123236033D02*
X137435350Y-122536033D01*
X137902017Y-122536033D02*
X138035350Y-122536033D01*
X138035350Y-122536033D02*
X138102017Y-122569366D01*
X138102017Y-122569366D02*
X138168683Y-122636033D01*
X138168683Y-122636033D02*
X138202017Y-122769366D01*
X138202017Y-122769366D02*
X138202017Y-123002700D01*
X138202017Y-123002700D02*
X138168683Y-123136033D01*
X138168683Y-123136033D02*
X138102017Y-123202700D01*
X138102017Y-123202700D02*
X138035350Y-123236033D01*
X138035350Y-123236033D02*
X137902017Y-123236033D01*
X137902017Y-123236033D02*
X137835350Y-123202700D01*
X137835350Y-123202700D02*
X137768683Y-123136033D01*
X137768683Y-123136033D02*
X137735350Y-123002700D01*
X137735350Y-123002700D02*
X137735350Y-122769366D01*
X137735350Y-122769366D02*
X137768683Y-122636033D01*
X137768683Y-122636033D02*
X137835350Y-122569366D01*
X137835350Y-122569366D02*
X137902017Y-122536033D01*
X138868683Y-123236033D02*
X138468683Y-123236033D01*
X138668683Y-123236033D02*
X138668683Y-122536033D01*
X138668683Y-122536033D02*
X138602016Y-122636033D01*
X138602016Y-122636033D02*
X138535350Y-122702700D01*
X138535350Y-122702700D02*
X138468683Y-122736033D01*
X139135350Y-122602700D02*
X139168683Y-122569366D01*
X139168683Y-122569366D02*
X139235350Y-122536033D01*
X139235350Y-122536033D02*
X139402017Y-122536033D01*
X139402017Y-122536033D02*
X139468683Y-122569366D01*
X139468683Y-122569366D02*
X139502017Y-122602700D01*
X139502017Y-122602700D02*
X139535350Y-122669366D01*
X139535350Y-122669366D02*
X139535350Y-122736033D01*
X139535350Y-122736033D02*
X139502017Y-122836033D01*
X139502017Y-122836033D02*
X139102017Y-123236033D01*
X139102017Y-123236033D02*
X139535350Y-123236033D01*
X140335350Y-122502700D02*
X139735350Y-123402700D01*
X140568683Y-123236033D02*
X140568683Y-122536033D01*
X140568683Y-122536033D02*
X140802017Y-123036033D01*
X140802017Y-123036033D02*
X141035350Y-122536033D01*
X141035350Y-122536033D02*
X141035350Y-123236033D01*
X141268683Y-122536033D02*
X141668683Y-122536033D01*
X141468683Y-123236033D02*
X141468683Y-122536033D01*
X141902016Y-123236033D02*
X141902016Y-122536033D01*
X141902016Y-122536033D02*
X142068683Y-122536033D01*
X142068683Y-122536033D02*
X142168683Y-122569366D01*
X142168683Y-122569366D02*
X142235350Y-122636033D01*
X142235350Y-122636033D02*
X142268683Y-122702700D01*
X142268683Y-122702700D02*
X142302016Y-122836033D01*
X142302016Y-122836033D02*
X142302016Y-122936033D01*
X142302016Y-122936033D02*
X142268683Y-123069366D01*
X142268683Y-123069366D02*
X142235350Y-123136033D01*
X142235350Y-123136033D02*
X142168683Y-123202700D01*
X142168683Y-123202700D02*
X142068683Y-123236033D01*
X142068683Y-123236033D02*
X141902016Y-123236033D01*
X142602016Y-123236033D02*
X142602016Y-122536033D01*
X136579289Y-137866099D02*
X136103099Y-137866099D01*
X136103099Y-137866099D02*
X136055480Y-138342289D01*
X136055480Y-138342289D02*
X136103099Y-138294670D01*
X136103099Y-138294670D02*
X136198337Y-138247051D01*
X136198337Y-138247051D02*
X136436432Y-138247051D01*
X136436432Y-138247051D02*
X136531670Y-138294670D01*
X136531670Y-138294670D02*
X136579289Y-138342289D01*
X136579289Y-138342289D02*
X136626908Y-138437527D01*
X136626908Y-138437527D02*
X136626908Y-138675622D01*
X136626908Y-138675622D02*
X136579289Y-138770860D01*
X136579289Y-138770860D02*
X136531670Y-138818480D01*
X136531670Y-138818480D02*
X136436432Y-138866099D01*
X136436432Y-138866099D02*
X136198337Y-138866099D01*
X136198337Y-138866099D02*
X136103099Y-138818480D01*
X136103099Y-138818480D02*
X136055480Y-138770860D01*
X136912623Y-137866099D02*
X137245956Y-138866099D01*
X137245956Y-138866099D02*
X137579289Y-137866099D01*
X155264649Y-117489366D02*
X155197982Y-117456033D01*
X155197982Y-117456033D02*
X155097982Y-117456033D01*
X155097982Y-117456033D02*
X154997982Y-117489366D01*
X154997982Y-117489366D02*
X154931316Y-117556033D01*
X154931316Y-117556033D02*
X154897982Y-117622700D01*
X154897982Y-117622700D02*
X154864649Y-117756033D01*
X154864649Y-117756033D02*
X154864649Y-117856033D01*
X154864649Y-117856033D02*
X154897982Y-117989366D01*
X154897982Y-117989366D02*
X154931316Y-118056033D01*
X154931316Y-118056033D02*
X154997982Y-118122700D01*
X154997982Y-118122700D02*
X155097982Y-118156033D01*
X155097982Y-118156033D02*
X155164649Y-118156033D01*
X155164649Y-118156033D02*
X155264649Y-118122700D01*
X155264649Y-118122700D02*
X155297982Y-118089366D01*
X155297982Y-118089366D02*
X155297982Y-117856033D01*
X155297982Y-117856033D02*
X155164649Y-117856033D01*
X155597982Y-118156033D02*
X155597982Y-117456033D01*
X155597982Y-117456033D02*
X155864649Y-117456033D01*
X155864649Y-117456033D02*
X155931316Y-117489366D01*
X155931316Y-117489366D02*
X155964649Y-117522700D01*
X155964649Y-117522700D02*
X155997982Y-117589366D01*
X155997982Y-117589366D02*
X155997982Y-117689366D01*
X155997982Y-117689366D02*
X155964649Y-117756033D01*
X155964649Y-117756033D02*
X155931316Y-117789366D01*
X155931316Y-117789366D02*
X155864649Y-117822700D01*
X155864649Y-117822700D02*
X155597982Y-117822700D01*
X156297982Y-118156033D02*
X156297982Y-117456033D01*
X156764649Y-117456033D02*
X156897982Y-117456033D01*
X156897982Y-117456033D02*
X156964649Y-117489366D01*
X156964649Y-117489366D02*
X157031315Y-117556033D01*
X157031315Y-117556033D02*
X157064649Y-117689366D01*
X157064649Y-117689366D02*
X157064649Y-117922700D01*
X157064649Y-117922700D02*
X157031315Y-118056033D01*
X157031315Y-118056033D02*
X156964649Y-118122700D01*
X156964649Y-118122700D02*
X156897982Y-118156033D01*
X156897982Y-118156033D02*
X156764649Y-118156033D01*
X156764649Y-118156033D02*
X156697982Y-118122700D01*
X156697982Y-118122700D02*
X156631315Y-118056033D01*
X156631315Y-118056033D02*
X156597982Y-117922700D01*
X156597982Y-117922700D02*
X156597982Y-117689366D01*
X156597982Y-117689366D02*
X156631315Y-117556033D01*
X156631315Y-117556033D02*
X156697982Y-117489366D01*
X156697982Y-117489366D02*
X156764649Y-117456033D01*
X157731315Y-118156033D02*
X157331315Y-118156033D01*
X157531315Y-118156033D02*
X157531315Y-117456033D01*
X157531315Y-117456033D02*
X157464648Y-117556033D01*
X157464648Y-117556033D02*
X157397982Y-117622700D01*
X157397982Y-117622700D02*
X157331315Y-117656033D01*
X157964649Y-117456033D02*
X158431315Y-117456033D01*
X158431315Y-117456033D02*
X158131315Y-118156033D01*
X136402017Y-120029366D02*
X136335350Y-119996033D01*
X136335350Y-119996033D02*
X136235350Y-119996033D01*
X136235350Y-119996033D02*
X136135350Y-120029366D01*
X136135350Y-120029366D02*
X136068684Y-120096033D01*
X136068684Y-120096033D02*
X136035350Y-120162700D01*
X136035350Y-120162700D02*
X136002017Y-120296033D01*
X136002017Y-120296033D02*
X136002017Y-120396033D01*
X136002017Y-120396033D02*
X136035350Y-120529366D01*
X136035350Y-120529366D02*
X136068684Y-120596033D01*
X136068684Y-120596033D02*
X136135350Y-120662700D01*
X136135350Y-120662700D02*
X136235350Y-120696033D01*
X136235350Y-120696033D02*
X136302017Y-120696033D01*
X136302017Y-120696033D02*
X136402017Y-120662700D01*
X136402017Y-120662700D02*
X136435350Y-120629366D01*
X136435350Y-120629366D02*
X136435350Y-120396033D01*
X136435350Y-120396033D02*
X136302017Y-120396033D01*
X136735350Y-120696033D02*
X136735350Y-119996033D01*
X136735350Y-119996033D02*
X137002017Y-119996033D01*
X137002017Y-119996033D02*
X137068684Y-120029366D01*
X137068684Y-120029366D02*
X137102017Y-120062700D01*
X137102017Y-120062700D02*
X137135350Y-120129366D01*
X137135350Y-120129366D02*
X137135350Y-120229366D01*
X137135350Y-120229366D02*
X137102017Y-120296033D01*
X137102017Y-120296033D02*
X137068684Y-120329366D01*
X137068684Y-120329366D02*
X137002017Y-120362700D01*
X137002017Y-120362700D02*
X136735350Y-120362700D01*
X137435350Y-120696033D02*
X137435350Y-119996033D01*
X137902017Y-119996033D02*
X138035350Y-119996033D01*
X138035350Y-119996033D02*
X138102017Y-120029366D01*
X138102017Y-120029366D02*
X138168683Y-120096033D01*
X138168683Y-120096033D02*
X138202017Y-120229366D01*
X138202017Y-120229366D02*
X138202017Y-120462700D01*
X138202017Y-120462700D02*
X138168683Y-120596033D01*
X138168683Y-120596033D02*
X138102017Y-120662700D01*
X138102017Y-120662700D02*
X138035350Y-120696033D01*
X138035350Y-120696033D02*
X137902017Y-120696033D01*
X137902017Y-120696033D02*
X137835350Y-120662700D01*
X137835350Y-120662700D02*
X137768683Y-120596033D01*
X137768683Y-120596033D02*
X137735350Y-120462700D01*
X137735350Y-120462700D02*
X137735350Y-120229366D01*
X137735350Y-120229366D02*
X137768683Y-120096033D01*
X137768683Y-120096033D02*
X137835350Y-120029366D01*
X137835350Y-120029366D02*
X137902017Y-119996033D01*
X138868683Y-120696033D02*
X138468683Y-120696033D01*
X138668683Y-120696033D02*
X138668683Y-119996033D01*
X138668683Y-119996033D02*
X138602016Y-120096033D01*
X138602016Y-120096033D02*
X138535350Y-120162700D01*
X138535350Y-120162700D02*
X138468683Y-120196033D01*
X139468683Y-120229366D02*
X139468683Y-120696033D01*
X139302017Y-119962700D02*
X139135350Y-120462700D01*
X139135350Y-120462700D02*
X139568683Y-120462700D01*
X140335350Y-119962700D02*
X139735350Y-120862700D01*
X140568683Y-120696033D02*
X140568683Y-119996033D01*
X140568683Y-119996033D02*
X140802017Y-120496033D01*
X140802017Y-120496033D02*
X141035350Y-119996033D01*
X141035350Y-119996033D02*
X141035350Y-120696033D01*
X141268683Y-119996033D02*
X141668683Y-119996033D01*
X141468683Y-120696033D02*
X141468683Y-119996033D01*
X141902016Y-120696033D02*
X141902016Y-119996033D01*
X141902016Y-119996033D02*
X142135350Y-120496033D01*
X142135350Y-120496033D02*
X142368683Y-119996033D01*
X142368683Y-119996033D02*
X142368683Y-120696033D01*
X142668683Y-120662700D02*
X142768683Y-120696033D01*
X142768683Y-120696033D02*
X142935350Y-120696033D01*
X142935350Y-120696033D02*
X143002016Y-120662700D01*
X143002016Y-120662700D02*
X143035350Y-120629366D01*
X143035350Y-120629366D02*
X143068683Y-120562700D01*
X143068683Y-120562700D02*
X143068683Y-120496033D01*
X143068683Y-120496033D02*
X143035350Y-120429366D01*
X143035350Y-120429366D02*
X143002016Y-120396033D01*
X143002016Y-120396033D02*
X142935350Y-120362700D01*
X142935350Y-120362700D02*
X142802016Y-120329366D01*
X142802016Y-120329366D02*
X142735350Y-120296033D01*
X142735350Y-120296033D02*
X142702016Y-120262700D01*
X142702016Y-120262700D02*
X142668683Y-120196033D01*
X142668683Y-120196033D02*
X142668683Y-120129366D01*
X142668683Y-120129366D02*
X142702016Y-120062700D01*
X142702016Y-120062700D02*
X142735350Y-120029366D01*
X142735350Y-120029366D02*
X142802016Y-119996033D01*
X142802016Y-119996033D02*
X142968683Y-119996033D01*
X142968683Y-119996033D02*
X143068683Y-120029366D01*
X136011541Y-91894819D02*
X136630588Y-91894819D01*
X136630588Y-91894819D02*
X136297255Y-92275771D01*
X136297255Y-92275771D02*
X136440112Y-92275771D01*
X136440112Y-92275771D02*
X136535350Y-92323390D01*
X136535350Y-92323390D02*
X136582969Y-92371009D01*
X136582969Y-92371009D02*
X136630588Y-92466247D01*
X136630588Y-92466247D02*
X136630588Y-92704342D01*
X136630588Y-92704342D02*
X136582969Y-92799580D01*
X136582969Y-92799580D02*
X136535350Y-92847200D01*
X136535350Y-92847200D02*
X136440112Y-92894819D01*
X136440112Y-92894819D02*
X136154398Y-92894819D01*
X136154398Y-92894819D02*
X136059160Y-92847200D01*
X136059160Y-92847200D02*
X136011541Y-92799580D01*
X136916303Y-91894819D02*
X137249636Y-92894819D01*
X137249636Y-92894819D02*
X137582969Y-91894819D01*
X137821065Y-91894819D02*
X138440112Y-91894819D01*
X138440112Y-91894819D02*
X138106779Y-92275771D01*
X138106779Y-92275771D02*
X138249636Y-92275771D01*
X138249636Y-92275771D02*
X138344874Y-92323390D01*
X138344874Y-92323390D02*
X138392493Y-92371009D01*
X138392493Y-92371009D02*
X138440112Y-92466247D01*
X138440112Y-92466247D02*
X138440112Y-92704342D01*
X138440112Y-92704342D02*
X138392493Y-92799580D01*
X138392493Y-92799580D02*
X138344874Y-92847200D01*
X138344874Y-92847200D02*
X138249636Y-92894819D01*
X138249636Y-92894819D02*
X137963922Y-92894819D01*
X137963922Y-92894819D02*
X137868684Y-92847200D01*
X137868684Y-92847200D02*
X137821065Y-92799580D01*
X157331315Y-133396033D02*
X157331315Y-132696033D01*
X157331315Y-132696033D02*
X157497982Y-132696033D01*
X157497982Y-132696033D02*
X157597982Y-132729366D01*
X157597982Y-132729366D02*
X157664649Y-132796033D01*
X157664649Y-132796033D02*
X157697982Y-132862700D01*
X157697982Y-132862700D02*
X157731315Y-132996033D01*
X157731315Y-132996033D02*
X157731315Y-133096033D01*
X157731315Y-133096033D02*
X157697982Y-133229366D01*
X157697982Y-133229366D02*
X157664649Y-133296033D01*
X157664649Y-133296033D02*
X157597982Y-133362700D01*
X157597982Y-133362700D02*
X157497982Y-133396033D01*
X157497982Y-133396033D02*
X157331315Y-133396033D01*
X158397982Y-133396033D02*
X157997982Y-133396033D01*
X158197982Y-133396033D02*
X158197982Y-132696033D01*
X158197982Y-132696033D02*
X158131315Y-132796033D01*
X158131315Y-132796033D02*
X158064649Y-132862700D01*
X158064649Y-132862700D02*
X157997982Y-132896033D01*
X155931316Y-114949366D02*
X155864649Y-114916033D01*
X155864649Y-114916033D02*
X155764649Y-114916033D01*
X155764649Y-114916033D02*
X155664649Y-114949366D01*
X155664649Y-114949366D02*
X155597983Y-115016033D01*
X155597983Y-115016033D02*
X155564649Y-115082700D01*
X155564649Y-115082700D02*
X155531316Y-115216033D01*
X155531316Y-115216033D02*
X155531316Y-115316033D01*
X155531316Y-115316033D02*
X155564649Y-115449366D01*
X155564649Y-115449366D02*
X155597983Y-115516033D01*
X155597983Y-115516033D02*
X155664649Y-115582700D01*
X155664649Y-115582700D02*
X155764649Y-115616033D01*
X155764649Y-115616033D02*
X155831316Y-115616033D01*
X155831316Y-115616033D02*
X155931316Y-115582700D01*
X155931316Y-115582700D02*
X155964649Y-115549366D01*
X155964649Y-115549366D02*
X155964649Y-115316033D01*
X155964649Y-115316033D02*
X155831316Y-115316033D01*
X156264649Y-115616033D02*
X156264649Y-114916033D01*
X156264649Y-114916033D02*
X156531316Y-114916033D01*
X156531316Y-114916033D02*
X156597983Y-114949366D01*
X156597983Y-114949366D02*
X156631316Y-114982700D01*
X156631316Y-114982700D02*
X156664649Y-115049366D01*
X156664649Y-115049366D02*
X156664649Y-115149366D01*
X156664649Y-115149366D02*
X156631316Y-115216033D01*
X156631316Y-115216033D02*
X156597983Y-115249366D01*
X156597983Y-115249366D02*
X156531316Y-115282700D01*
X156531316Y-115282700D02*
X156264649Y-115282700D01*
X156964649Y-115616033D02*
X156964649Y-114916033D01*
X157431316Y-114916033D02*
X157564649Y-114916033D01*
X157564649Y-114916033D02*
X157631316Y-114949366D01*
X157631316Y-114949366D02*
X157697982Y-115016033D01*
X157697982Y-115016033D02*
X157731316Y-115149366D01*
X157731316Y-115149366D02*
X157731316Y-115382700D01*
X157731316Y-115382700D02*
X157697982Y-115516033D01*
X157697982Y-115516033D02*
X157631316Y-115582700D01*
X157631316Y-115582700D02*
X157564649Y-115616033D01*
X157564649Y-115616033D02*
X157431316Y-115616033D01*
X157431316Y-115616033D02*
X157364649Y-115582700D01*
X157364649Y-115582700D02*
X157297982Y-115516033D01*
X157297982Y-115516033D02*
X157264649Y-115382700D01*
X157264649Y-115382700D02*
X157264649Y-115149366D01*
X157264649Y-115149366D02*
X157297982Y-115016033D01*
X157297982Y-115016033D02*
X157364649Y-114949366D01*
X157364649Y-114949366D02*
X157431316Y-114916033D01*
X158364649Y-114916033D02*
X158031315Y-114916033D01*
X158031315Y-114916033D02*
X157997982Y-115249366D01*
X157997982Y-115249366D02*
X158031315Y-115216033D01*
X158031315Y-115216033D02*
X158097982Y-115182700D01*
X158097982Y-115182700D02*
X158264649Y-115182700D01*
X158264649Y-115182700D02*
X158331315Y-115216033D01*
X158331315Y-115216033D02*
X158364649Y-115249366D01*
X158364649Y-115249366D02*
X158397982Y-115316033D01*
X158397982Y-115316033D02*
X158397982Y-115482700D01*
X158397982Y-115482700D02*
X158364649Y-115549366D01*
X158364649Y-115549366D02*
X158331315Y-115582700D01*
X158331315Y-115582700D02*
X158264649Y-115616033D01*
X158264649Y-115616033D02*
X158097982Y-115616033D01*
X158097982Y-115616033D02*
X158031315Y-115582700D01*
X158031315Y-115582700D02*
X157997982Y-115549366D01*
D11*
X155833333Y-56945419D02*
X155500000Y-56469228D01*
X155261905Y-56945419D02*
X155261905Y-55945419D01*
X155261905Y-55945419D02*
X155642857Y-55945419D01*
X155642857Y-55945419D02*
X155738095Y-55993038D01*
X155738095Y-55993038D02*
X155785714Y-56040657D01*
X155785714Y-56040657D02*
X155833333Y-56135895D01*
X155833333Y-56135895D02*
X155833333Y-56278752D01*
X155833333Y-56278752D02*
X155785714Y-56373990D01*
X155785714Y-56373990D02*
X155738095Y-56421609D01*
X155738095Y-56421609D02*
X155642857Y-56469228D01*
X155642857Y-56469228D02*
X155261905Y-56469228D01*
X156785714Y-56945419D02*
X156214286Y-56945419D01*
X156500000Y-56945419D02*
X156500000Y-55945419D01*
X156500000Y-55945419D02*
X156404762Y-56088276D01*
X156404762Y-56088276D02*
X156309524Y-56183514D01*
X156309524Y-56183514D02*
X156214286Y-56231133D01*
X155833333Y-61457419D02*
X155500000Y-60981228D01*
X155261905Y-61457419D02*
X155261905Y-60457419D01*
X155261905Y-60457419D02*
X155642857Y-60457419D01*
X155642857Y-60457419D02*
X155738095Y-60505038D01*
X155738095Y-60505038D02*
X155785714Y-60552657D01*
X155785714Y-60552657D02*
X155833333Y-60647895D01*
X155833333Y-60647895D02*
X155833333Y-60790752D01*
X155833333Y-60790752D02*
X155785714Y-60885990D01*
X155785714Y-60885990D02*
X155738095Y-60933609D01*
X155738095Y-60933609D02*
X155642857Y-60981228D01*
X155642857Y-60981228D02*
X155261905Y-60981228D01*
X156214286Y-60552657D02*
X156261905Y-60505038D01*
X156261905Y-60505038D02*
X156357143Y-60457419D01*
X156357143Y-60457419D02*
X156595238Y-60457419D01*
X156595238Y-60457419D02*
X156690476Y-60505038D01*
X156690476Y-60505038D02*
X156738095Y-60552657D01*
X156738095Y-60552657D02*
X156785714Y-60647895D01*
X156785714Y-60647895D02*
X156785714Y-60743133D01*
X156785714Y-60743133D02*
X156738095Y-60885990D01*
X156738095Y-60885990D02*
X156166667Y-61457419D01*
X156166667Y-61457419D02*
X156785714Y-61457419D01*
X151960952Y-83870752D02*
X151960952Y-84680276D01*
X151960952Y-84680276D02*
X151913333Y-84775514D01*
X151913333Y-84775514D02*
X151865714Y-84823133D01*
X151865714Y-84823133D02*
X151770476Y-84870752D01*
X151770476Y-84870752D02*
X151627619Y-84870752D01*
X151627619Y-84870752D02*
X151532381Y-84823133D01*
X151960952Y-84489800D02*
X151865714Y-84537419D01*
X151865714Y-84537419D02*
X151675238Y-84537419D01*
X151675238Y-84537419D02*
X151580000Y-84489800D01*
X151580000Y-84489800D02*
X151532381Y-84442180D01*
X151532381Y-84442180D02*
X151484762Y-84346942D01*
X151484762Y-84346942D02*
X151484762Y-84061228D01*
X151484762Y-84061228D02*
X151532381Y-83965990D01*
X151532381Y-83965990D02*
X151580000Y-83918371D01*
X151580000Y-83918371D02*
X151675238Y-83870752D01*
X151675238Y-83870752D02*
X151865714Y-83870752D01*
X151865714Y-83870752D02*
X151960952Y-83918371D01*
X152437143Y-83870752D02*
X152437143Y-84870752D01*
X152437143Y-83918371D02*
X152532381Y-83870752D01*
X152532381Y-83870752D02*
X152722857Y-83870752D01*
X152722857Y-83870752D02*
X152818095Y-83918371D01*
X152818095Y-83918371D02*
X152865714Y-83965990D01*
X152865714Y-83965990D02*
X152913333Y-84061228D01*
X152913333Y-84061228D02*
X152913333Y-84346942D01*
X152913333Y-84346942D02*
X152865714Y-84442180D01*
X152865714Y-84442180D02*
X152818095Y-84489800D01*
X152818095Y-84489800D02*
X152722857Y-84537419D01*
X152722857Y-84537419D02*
X152532381Y-84537419D01*
X152532381Y-84537419D02*
X152437143Y-84489800D01*
X153294286Y-84489800D02*
X153389524Y-84537419D01*
X153389524Y-84537419D02*
X153580000Y-84537419D01*
X153580000Y-84537419D02*
X153675238Y-84489800D01*
X153675238Y-84489800D02*
X153722857Y-84394561D01*
X153722857Y-84394561D02*
X153722857Y-84346942D01*
X153722857Y-84346942D02*
X153675238Y-84251704D01*
X153675238Y-84251704D02*
X153580000Y-84204085D01*
X153580000Y-84204085D02*
X153437143Y-84204085D01*
X153437143Y-84204085D02*
X153341905Y-84156466D01*
X153341905Y-84156466D02*
X153294286Y-84061228D01*
X153294286Y-84061228D02*
X153294286Y-84013609D01*
X153294286Y-84013609D02*
X153341905Y-83918371D01*
X153341905Y-83918371D02*
X153437143Y-83870752D01*
X153437143Y-83870752D02*
X153580000Y-83870752D01*
X153580000Y-83870752D02*
X153675238Y-83918371D01*
X154675238Y-84537419D02*
X154103810Y-84537419D01*
X154389524Y-84537419D02*
X154389524Y-83537419D01*
X154389524Y-83537419D02*
X154294286Y-83680276D01*
X154294286Y-83680276D02*
X154199048Y-83775514D01*
X154199048Y-83775514D02*
X154103810Y-83823133D01*
D10*
X170666666Y-89604819D02*
X170666666Y-90319104D01*
X170666666Y-90319104D02*
X170619047Y-90461961D01*
X170619047Y-90461961D02*
X170523809Y-90557200D01*
X170523809Y-90557200D02*
X170380952Y-90604819D01*
X170380952Y-90604819D02*
X170285714Y-90604819D01*
X171619047Y-89604819D02*
X171142857Y-89604819D01*
X171142857Y-89604819D02*
X171095238Y-90081009D01*
X171095238Y-90081009D02*
X171142857Y-90033390D01*
X171142857Y-90033390D02*
X171238095Y-89985771D01*
X171238095Y-89985771D02*
X171476190Y-89985771D01*
X171476190Y-89985771D02*
X171571428Y-90033390D01*
X171571428Y-90033390D02*
X171619047Y-90081009D01*
X171619047Y-90081009D02*
X171666666Y-90176247D01*
X171666666Y-90176247D02*
X171666666Y-90414342D01*
X171666666Y-90414342D02*
X171619047Y-90509580D01*
X171619047Y-90509580D02*
X171571428Y-90557200D01*
X171571428Y-90557200D02*
X171476190Y-90604819D01*
X171476190Y-90604819D02*
X171238095Y-90604819D01*
X171238095Y-90604819D02*
X171142857Y-90557200D01*
X171142857Y-90557200D02*
X171095238Y-90509580D01*
D11*
X174468571Y-79849800D02*
X174373333Y-79897419D01*
X174373333Y-79897419D02*
X174182857Y-79897419D01*
X174182857Y-79897419D02*
X174087619Y-79849800D01*
X174087619Y-79849800D02*
X174040000Y-79802180D01*
X174040000Y-79802180D02*
X173992381Y-79706942D01*
X173992381Y-79706942D02*
X173992381Y-79421228D01*
X173992381Y-79421228D02*
X174040000Y-79325990D01*
X174040000Y-79325990D02*
X174087619Y-79278371D01*
X174087619Y-79278371D02*
X174182857Y-79230752D01*
X174182857Y-79230752D02*
X174373333Y-79230752D01*
X174373333Y-79230752D02*
X174468571Y-79278371D01*
X175040000Y-79897419D02*
X174944762Y-79849800D01*
X174944762Y-79849800D02*
X174897143Y-79802180D01*
X174897143Y-79802180D02*
X174849524Y-79706942D01*
X174849524Y-79706942D02*
X174849524Y-79421228D01*
X174849524Y-79421228D02*
X174897143Y-79325990D01*
X174897143Y-79325990D02*
X174944762Y-79278371D01*
X174944762Y-79278371D02*
X175040000Y-79230752D01*
X175040000Y-79230752D02*
X175182857Y-79230752D01*
X175182857Y-79230752D02*
X175278095Y-79278371D01*
X175278095Y-79278371D02*
X175325714Y-79325990D01*
X175325714Y-79325990D02*
X175373333Y-79421228D01*
X175373333Y-79421228D02*
X175373333Y-79706942D01*
X175373333Y-79706942D02*
X175325714Y-79802180D01*
X175325714Y-79802180D02*
X175278095Y-79849800D01*
X175278095Y-79849800D02*
X175182857Y-79897419D01*
X175182857Y-79897419D02*
X175040000Y-79897419D01*
X175801905Y-79897419D02*
X175801905Y-79230752D01*
X175801905Y-79325990D02*
X175849524Y-79278371D01*
X175849524Y-79278371D02*
X175944762Y-79230752D01*
X175944762Y-79230752D02*
X176087619Y-79230752D01*
X176087619Y-79230752D02*
X176182857Y-79278371D01*
X176182857Y-79278371D02*
X176230476Y-79373609D01*
X176230476Y-79373609D02*
X176230476Y-79897419D01*
X176230476Y-79373609D02*
X176278095Y-79278371D01*
X176278095Y-79278371D02*
X176373333Y-79230752D01*
X176373333Y-79230752D02*
X176516190Y-79230752D01*
X176516190Y-79230752D02*
X176611429Y-79278371D01*
X176611429Y-79278371D02*
X176659048Y-79373609D01*
X176659048Y-79373609D02*
X176659048Y-79897419D01*
X177135238Y-79230752D02*
X177135238Y-80230752D01*
X177135238Y-79278371D02*
X177230476Y-79230752D01*
X177230476Y-79230752D02*
X177420952Y-79230752D01*
X177420952Y-79230752D02*
X177516190Y-79278371D01*
X177516190Y-79278371D02*
X177563809Y-79325990D01*
X177563809Y-79325990D02*
X177611428Y-79421228D01*
X177611428Y-79421228D02*
X177611428Y-79706942D01*
X177611428Y-79706942D02*
X177563809Y-79802180D01*
X177563809Y-79802180D02*
X177516190Y-79849800D01*
X177516190Y-79849800D02*
X177420952Y-79897419D01*
X177420952Y-79897419D02*
X177230476Y-79897419D01*
X177230476Y-79897419D02*
X177135238Y-79849800D01*
X178468571Y-79897419D02*
X178468571Y-79373609D01*
X178468571Y-79373609D02*
X178420952Y-79278371D01*
X178420952Y-79278371D02*
X178325714Y-79230752D01*
X178325714Y-79230752D02*
X178135238Y-79230752D01*
X178135238Y-79230752D02*
X178040000Y-79278371D01*
X178468571Y-79849800D02*
X178373333Y-79897419D01*
X178373333Y-79897419D02*
X178135238Y-79897419D01*
X178135238Y-79897419D02*
X178040000Y-79849800D01*
X178040000Y-79849800D02*
X177992381Y-79754561D01*
X177992381Y-79754561D02*
X177992381Y-79659323D01*
X177992381Y-79659323D02*
X178040000Y-79564085D01*
X178040000Y-79564085D02*
X178135238Y-79516466D01*
X178135238Y-79516466D02*
X178373333Y-79516466D01*
X178373333Y-79516466D02*
X178468571Y-79468847D01*
X178897143Y-79849800D02*
X178992381Y-79897419D01*
X178992381Y-79897419D02*
X179182857Y-79897419D01*
X179182857Y-79897419D02*
X179278095Y-79849800D01*
X179278095Y-79849800D02*
X179325714Y-79754561D01*
X179325714Y-79754561D02*
X179325714Y-79706942D01*
X179325714Y-79706942D02*
X179278095Y-79611704D01*
X179278095Y-79611704D02*
X179182857Y-79564085D01*
X179182857Y-79564085D02*
X179040000Y-79564085D01*
X179040000Y-79564085D02*
X178944762Y-79516466D01*
X178944762Y-79516466D02*
X178897143Y-79421228D01*
X178897143Y-79421228D02*
X178897143Y-79373609D01*
X178897143Y-79373609D02*
X178944762Y-79278371D01*
X178944762Y-79278371D02*
X179040000Y-79230752D01*
X179040000Y-79230752D02*
X179182857Y-79230752D01*
X179182857Y-79230752D02*
X179278095Y-79278371D01*
X179706667Y-79849800D02*
X179801905Y-79897419D01*
X179801905Y-79897419D02*
X179992381Y-79897419D01*
X179992381Y-79897419D02*
X180087619Y-79849800D01*
X180087619Y-79849800D02*
X180135238Y-79754561D01*
X180135238Y-79754561D02*
X180135238Y-79706942D01*
X180135238Y-79706942D02*
X180087619Y-79611704D01*
X180087619Y-79611704D02*
X179992381Y-79564085D01*
X179992381Y-79564085D02*
X179849524Y-79564085D01*
X179849524Y-79564085D02*
X179754286Y-79516466D01*
X179754286Y-79516466D02*
X179706667Y-79421228D01*
X179706667Y-79421228D02*
X179706667Y-79373609D01*
X179706667Y-79373609D02*
X179754286Y-79278371D01*
X179754286Y-79278371D02*
X179849524Y-79230752D01*
X179849524Y-79230752D02*
X179992381Y-79230752D01*
X179992381Y-79230752D02*
X180087619Y-79278371D01*
X181087619Y-79897419D02*
X180516191Y-79897419D01*
X180801905Y-79897419D02*
X180801905Y-78897419D01*
X180801905Y-78897419D02*
X180706667Y-79040276D01*
X180706667Y-79040276D02*
X180611429Y-79135514D01*
X180611429Y-79135514D02*
X180516191Y-79183133D01*
D10*
X190666666Y-89604819D02*
X190666666Y-90319104D01*
X190666666Y-90319104D02*
X190619047Y-90461961D01*
X190619047Y-90461961D02*
X190523809Y-90557200D01*
X190523809Y-90557200D02*
X190380952Y-90604819D01*
X190380952Y-90604819D02*
X190285714Y-90604819D01*
X191666666Y-90604819D02*
X191095238Y-90604819D01*
X191380952Y-90604819D02*
X191380952Y-89604819D01*
X191380952Y-89604819D02*
X191285714Y-89747676D01*
X191285714Y-89747676D02*
X191190476Y-89842914D01*
X191190476Y-89842914D02*
X191095238Y-89890533D01*
X114666666Y-89164819D02*
X114666666Y-89879104D01*
X114666666Y-89879104D02*
X114619047Y-90021961D01*
X114619047Y-90021961D02*
X114523809Y-90117200D01*
X114523809Y-90117200D02*
X114380952Y-90164819D01*
X114380952Y-90164819D02*
X114285714Y-90164819D01*
X115571428Y-89498152D02*
X115571428Y-90164819D01*
X115333333Y-89117200D02*
X115095238Y-89831485D01*
X115095238Y-89831485D02*
X115714285Y-89831485D01*
X104666666Y-89604819D02*
X104666666Y-90319104D01*
X104666666Y-90319104D02*
X104619047Y-90461961D01*
X104619047Y-90461961D02*
X104523809Y-90557200D01*
X104523809Y-90557200D02*
X104380952Y-90604819D01*
X104380952Y-90604819D02*
X104285714Y-90604819D01*
X105095238Y-89700057D02*
X105142857Y-89652438D01*
X105142857Y-89652438D02*
X105238095Y-89604819D01*
X105238095Y-89604819D02*
X105476190Y-89604819D01*
X105476190Y-89604819D02*
X105571428Y-89652438D01*
X105571428Y-89652438D02*
X105619047Y-89700057D01*
X105619047Y-89700057D02*
X105666666Y-89795295D01*
X105666666Y-89795295D02*
X105666666Y-89890533D01*
X105666666Y-89890533D02*
X105619047Y-90033390D01*
X105619047Y-90033390D02*
X105047619Y-90604819D01*
X105047619Y-90604819D02*
X105666666Y-90604819D01*
X180666666Y-89164819D02*
X180666666Y-89879104D01*
X180666666Y-89879104D02*
X180619047Y-90021961D01*
X180619047Y-90021961D02*
X180523809Y-90117200D01*
X180523809Y-90117200D02*
X180380952Y-90164819D01*
X180380952Y-90164819D02*
X180285714Y-90164819D01*
X181571428Y-89164819D02*
X181380952Y-89164819D01*
X181380952Y-89164819D02*
X181285714Y-89212438D01*
X181285714Y-89212438D02*
X181238095Y-89260057D01*
X181238095Y-89260057D02*
X181142857Y-89402914D01*
X181142857Y-89402914D02*
X181095238Y-89593390D01*
X181095238Y-89593390D02*
X181095238Y-89974342D01*
X181095238Y-89974342D02*
X181142857Y-90069580D01*
X181142857Y-90069580D02*
X181190476Y-90117200D01*
X181190476Y-90117200D02*
X181285714Y-90164819D01*
X181285714Y-90164819D02*
X181476190Y-90164819D01*
X181476190Y-90164819D02*
X181571428Y-90117200D01*
X181571428Y-90117200D02*
X181619047Y-90069580D01*
X181619047Y-90069580D02*
X181666666Y-89974342D01*
X181666666Y-89974342D02*
X181666666Y-89736247D01*
X181666666Y-89736247D02*
X181619047Y-89641009D01*
X181619047Y-89641009D02*
X181571428Y-89593390D01*
X181571428Y-89593390D02*
X181476190Y-89545771D01*
X181476190Y-89545771D02*
X181285714Y-89545771D01*
X181285714Y-89545771D02*
X181190476Y-89593390D01*
X181190476Y-89593390D02*
X181142857Y-89641009D01*
X181142857Y-89641009D02*
X181095238Y-89736247D01*
D12*
%TO.C,U1*%
X133000000Y-139260000D02*
X161399999Y-139260000D01*
X133000001Y-91340000D02*
X133000000Y-139260000D01*
X138230120Y-85426880D02*
X156213320Y-85426880D01*
X138230120Y-91319680D02*
X138230120Y-85426880D01*
X156213320Y-85426880D02*
X156213320Y-91319680D01*
X161399999Y-139260000D02*
X161400000Y-91340000D01*
X161400000Y-91340000D02*
X133000001Y-91340000D01*
%TO.C,gps1*%
D11*
X145460000Y-66300000D02*
X160700000Y-66300000D01*
X160700000Y-81540000D01*
X145460000Y-81540000D01*
X145460000Y-66300000D01*
D12*
%TO.C,J5*%
X169670000Y-91150000D02*
X171000000Y-91150000D01*
X169670000Y-92480000D02*
X169670000Y-91150000D01*
X169670000Y-93750000D02*
X169670000Y-139530000D01*
X169670000Y-93750000D02*
X172330000Y-93750000D01*
X169670000Y-139530000D02*
X172330000Y-139530000D01*
X172330000Y-93750000D02*
X172330000Y-139530000D01*
%TO.C,compass1*%
D11*
X165040000Y-51900000D02*
X190040000Y-51900000D01*
X190040000Y-76900000D01*
X165040000Y-76900000D01*
X165040000Y-51900000D01*
D12*
%TO.C,J1*%
X189670000Y-91150000D02*
X191000000Y-91150000D01*
X189670000Y-92480000D02*
X189670000Y-91150000D01*
X189670000Y-93750000D02*
X189670000Y-139530000D01*
X189670000Y-93750000D02*
X192330000Y-93750000D01*
X189670000Y-139530000D02*
X192330000Y-139530000D01*
X192330000Y-93750000D02*
X192330000Y-139530000D01*
%TO.C,J4*%
X113670000Y-93750000D02*
X113670000Y-139530000D01*
X113670000Y-93750000D02*
X116330000Y-93750000D01*
X113670000Y-139530000D02*
X116330000Y-139530000D01*
X115000000Y-91150000D02*
X116330000Y-91150000D01*
X116330000Y-91150000D02*
X116330000Y-92480000D01*
X116330000Y-93750000D02*
X116330000Y-139530000D01*
%TO.C,J3*%
X123670000Y-91150000D02*
X125000000Y-91150000D01*
X123670000Y-92480000D02*
X123670000Y-91150000D01*
X123670000Y-93750000D02*
X123670000Y-139530000D01*
X123670000Y-93750000D02*
X126330000Y-93750000D01*
X123670000Y-139530000D02*
X126330000Y-139530000D01*
X126330000Y-93750000D02*
X126330000Y-139530000D01*
%TO.C,J2*%
X103670000Y-91150000D02*
X105000000Y-91150000D01*
X103670000Y-92480000D02*
X103670000Y-91150000D01*
X103670000Y-93750000D02*
X103670000Y-139530000D01*
X103670000Y-93750000D02*
X106330000Y-93750000D01*
X103670000Y-139530000D02*
X106330000Y-139530000D01*
X106330000Y-93750000D02*
X106330000Y-139530000D01*
%TO.C,J6*%
X179670000Y-93750000D02*
X179670000Y-139530000D01*
X179670000Y-93750000D02*
X182330000Y-93750000D01*
X179670000Y-139530000D02*
X182330000Y-139530000D01*
X181000000Y-91150000D02*
X182330000Y-91150000D01*
X182330000Y-91150000D02*
X182330000Y-92480000D01*
X182330000Y-93750000D02*
X182330000Y-139530000D01*
%TD*%
M02*
