%TF.GenerationSoftware,KiCad,Pcbnew,8.0.1*%
%TF.CreationDate,2024-03-28T21:01:30+03:00*%
%TF.ProjectId,esp32_board,65737033-325f-4626-9f61-72642e6b6963,rev?*%
%TF.SameCoordinates,Original*%
%TF.FileFunction,Copper,L2,Bot*%
%TF.FilePolarity,Positive*%
%FSLAX46Y46*%
G04 Gerber Fmt 4.6, Leading zero omitted, Abs format (unit mm)*
G04 Created by KiCad (PCBNEW 8.0.1) date 2024-03-28 21:01:30*
%MOMM*%
%LPD*%
G01*
G04 APERTURE LIST*
%TA.AperFunction,ComponentPad*%
%ADD10R,2.000000X1.200000*%
%TD*%
%TA.AperFunction,ComponentPad*%
%ADD11O,2.000000X1.200000*%
%TD*%
%TA.AperFunction,ComponentPad*%
%ADD12C,1.524000*%
%TD*%
%TA.AperFunction,ComponentPad*%
%ADD13R,1.700000X1.700000*%
%TD*%
%TA.AperFunction,ComponentPad*%
%ADD14O,1.700000X1.700000*%
%TD*%
%TA.AperFunction,ViaPad*%
%ADD15C,3.000000*%
%TD*%
G04 APERTURE END LIST*
D10*
%TO.P,U1,1,3V3*%
%TO.N,3V3*%
X134500000Y-92440000D03*
D11*
%TO.P,U1,2,CHIP_PU*%
%TO.N,EN*%
X134500000Y-94980000D03*
%TO.P,U1,3,SENSOR_VP/GPIO36/ADC1_CH0*%
%TO.N,SP*%
X134500000Y-97520000D03*
%TO.P,U1,4,SENSOR_VN/GPIO39/ADC1_CH3*%
%TO.N,SN*%
X134500000Y-100060000D03*
%TO.P,U1,5,VDET_1/GPIO34/ADC1_CH6*%
%TO.N,34*%
X134500000Y-102600000D03*
%TO.P,U1,6,VDET_2/GPIO35/ADC1_CH7*%
%TO.N,35*%
X134500000Y-105140000D03*
%TO.P,U1,7,32K_XP/GPIO32/ADC1_CH4*%
%TO.N,32*%
X134500000Y-107680000D03*
%TO.P,U1,8,32K_XN/GPIO33/ADC1_CH5*%
%TO.N,33*%
X134500000Y-110220000D03*
%TO.P,U1,9,DAC_1/ADC2_CH8/GPIO25*%
%TO.N,25*%
X134500000Y-112760000D03*
%TO.P,U1,10,DAC_2/ADC2_CH9/GPIO26*%
%TO.N,26*%
X134500000Y-115300000D03*
%TO.P,U1,11,ADC2_CH7/GPIO27*%
%TO.N,27*%
X134500000Y-117840000D03*
%TO.P,U1,12,MTMS/GPIO14/ADC2_CH6*%
%TO.N,14*%
X134500000Y-120380000D03*
%TO.P,U1,13,MTDI/GPIO12/ADC2_CH5*%
%TO.N,12*%
X134500000Y-122920000D03*
%TO.P,U1,14,GND*%
%TO.N,GND*%
X134500000Y-125460000D03*
%TO.P,U1,15,MTCK/GPIO13/ADC2_CH4*%
%TO.N,13*%
X134500000Y-128000000D03*
%TO.P,U1,16,SD_DATA2/GPIO9*%
%TO.N,SD2*%
X134500000Y-130540000D03*
%TO.P,U1,17,SD_DATA3/GPIO10*%
%TO.N,SD3*%
X134500000Y-133080000D03*
%TO.P,U1,18,CMD*%
%TO.N,CMD*%
X134500000Y-135620000D03*
%TO.P,U1,19,5V*%
%TO.N,V5*%
X134500000Y-138160000D03*
%TO.P,U1,20,SD_CLK/GPIO6*%
%TO.N,CLK*%
X159896320Y-138157280D03*
%TO.P,U1,21,SD_DATA0/GPIO7*%
%TO.N,SD0*%
X159896320Y-135617280D03*
%TO.P,U1,22,SD_DATA1/GPIO8*%
%TO.N,SD1*%
X159900000Y-133080000D03*
%TO.P,U1,23,MTDO/GPIO15/ADC2_CH3*%
%TO.N,15*%
X159900000Y-130540000D03*
%TO.P,U1,24,ADC2_CH2/GPIO2*%
%TO.N,2*%
X159900000Y-128000000D03*
%TO.P,U1,25,GPIO0/BOOT/ADC2_CH1*%
%TO.N,0*%
X159900000Y-125460000D03*
%TO.P,U1,26,ADC2_CH0/GPIO4*%
%TO.N,4*%
X159900000Y-122920000D03*
%TO.P,U1,27,GPIO16*%
%TO.N,16*%
X159900000Y-120380000D03*
%TO.P,U1,28,GPIO17*%
%TO.N,17*%
X159900000Y-117840000D03*
%TO.P,U1,29,GPIO5*%
%TO.N,5*%
X159900000Y-115300000D03*
%TO.P,U1,30,GPIO18*%
%TO.N,18*%
X159900000Y-112760000D03*
%TO.P,U1,31,GPIO19*%
%TO.N,19*%
X159900000Y-110220000D03*
%TO.P,U1,32,GND*%
%TO.N,GND*%
X159900000Y-107680000D03*
%TO.P,U1,33,GPIO21*%
%TO.N,21*%
X159900000Y-105140000D03*
%TO.P,U1,34,U0RXD/GPIO3*%
%TO.N,RX*%
X159900000Y-102600000D03*
%TO.P,U1,35,U0TXD/GPIO1*%
%TO.N,TX*%
X159900000Y-100060000D03*
%TO.P,U1,36,GPIO22*%
%TO.N,22*%
X159900000Y-97520000D03*
%TO.P,U1,37,GPIO23*%
%TO.N,23*%
X159900000Y-94980000D03*
%TO.P,U1,38,GND*%
%TO.N,GND*%
X159900000Y-92440000D03*
%TD*%
D12*
%TO.P,R1,1*%
%TO.N,3V3*%
X151000000Y-53988000D03*
%TO.P,R1,2*%
%TO.N,22*%
X161000000Y-53988000D03*
%TD*%
%TO.P,R2,1*%
%TO.N,3V3*%
X151000000Y-58500000D03*
%TO.P,R2,2*%
%TO.N,21*%
X161000000Y-58500000D03*
%TD*%
%TO.P,gps1,1,VCC*%
%TO.N,V5*%
X148000000Y-79000000D03*
%TO.P,gps1,2,GND*%
%TO.N,GND*%
X150540000Y-79000000D03*
%TO.P,gps1,3,TX*%
%TO.N,16*%
X153080000Y-79080000D03*
%TO.P,gps1,4,RX*%
%TO.N,17*%
X155620000Y-79080000D03*
%TO.P,gps1,5,PPS*%
%TO.N,unconnected-(gps1-PPS-Pad5)*%
X158160000Y-79080000D03*
%TD*%
D13*
%TO.P,J5,1,Pin_1*%
%TO.N,GND*%
X171000000Y-92480000D03*
D14*
%TO.P,J5,2,Pin_2*%
%TO.N,23*%
X171000000Y-95020000D03*
%TO.P,J5,3,Pin_3*%
%TO.N,22*%
X171000000Y-97560000D03*
%TO.P,J5,4,Pin_4*%
%TO.N,TX*%
X171000000Y-100100000D03*
%TO.P,J5,5,Pin_5*%
%TO.N,RX*%
X171000000Y-102640000D03*
%TO.P,J5,6,Pin_6*%
%TO.N,21*%
X171000000Y-105180000D03*
%TO.P,J5,7,Pin_7*%
%TO.N,GND*%
X171000000Y-107720000D03*
%TO.P,J5,8,Pin_8*%
%TO.N,19*%
X171000000Y-110260000D03*
%TO.P,J5,9,Pin_9*%
%TO.N,18*%
X171000000Y-112800000D03*
%TO.P,J5,10,Pin_10*%
%TO.N,5*%
X171000000Y-115340000D03*
%TO.P,J5,11,Pin_11*%
%TO.N,17*%
X171000000Y-117880000D03*
%TO.P,J5,12,Pin_12*%
%TO.N,16*%
X171000000Y-120420000D03*
%TO.P,J5,13,Pin_13*%
%TO.N,4*%
X171000000Y-122960000D03*
%TO.P,J5,14,Pin_14*%
%TO.N,0*%
X171000000Y-125500000D03*
%TO.P,J5,15,Pin_15*%
%TO.N,2*%
X171000000Y-128040000D03*
%TO.P,J5,16,Pin_16*%
%TO.N,15*%
X171000000Y-130580000D03*
%TO.P,J5,17,Pin_17*%
%TO.N,SD1*%
X171000000Y-133120000D03*
%TO.P,J5,18,Pin_18*%
%TO.N,SD0*%
X171000000Y-135660000D03*
%TO.P,J5,19,Pin_19*%
%TO.N,CLK*%
X171000000Y-138200000D03*
%TD*%
D12*
%TO.P,compass1,1*%
%TO.N,unconnected-(compass1-Pad1)*%
X175000000Y-73300000D03*
%TO.P,compass1,2,V*%
%TO.N,V5*%
X177540000Y-73300000D03*
%TO.P,compass1,3,G*%
%TO.N,GND*%
X180080000Y-73300000D03*
%TO.P,compass1,4,D*%
%TO.N,21*%
X175000000Y-55500000D03*
%TO.P,compass1,5,C*%
%TO.N,22*%
X177540000Y-55500000D03*
%TO.P,compass1,6*%
%TO.N,unconnected-(compass1-Pad6)*%
X180080000Y-55500000D03*
%TD*%
D13*
%TO.P,J1,1,Pin_1*%
%TO.N,GND*%
X191000000Y-92480000D03*
D14*
%TO.P,J1,2,Pin_2*%
%TO.N,23*%
X191000000Y-95020000D03*
%TO.P,J1,3,Pin_3*%
%TO.N,22*%
X191000000Y-97560000D03*
%TO.P,J1,4,Pin_4*%
%TO.N,TX*%
X191000000Y-100100000D03*
%TO.P,J1,5,Pin_5*%
%TO.N,RX*%
X191000000Y-102640000D03*
%TO.P,J1,6,Pin_6*%
%TO.N,21*%
X191000000Y-105180000D03*
%TO.P,J1,7,Pin_7*%
%TO.N,GND*%
X191000000Y-107720000D03*
%TO.P,J1,8,Pin_8*%
%TO.N,19*%
X191000000Y-110260000D03*
%TO.P,J1,9,Pin_9*%
%TO.N,18*%
X191000000Y-112800000D03*
%TO.P,J1,10,Pin_10*%
%TO.N,5*%
X191000000Y-115340000D03*
%TO.P,J1,11,Pin_11*%
%TO.N,17*%
X191000000Y-117880000D03*
%TO.P,J1,12,Pin_12*%
%TO.N,16*%
X191000000Y-120420000D03*
%TO.P,J1,13,Pin_13*%
%TO.N,4*%
X191000000Y-122960000D03*
%TO.P,J1,14,Pin_14*%
%TO.N,0*%
X191000000Y-125500000D03*
%TO.P,J1,15,Pin_15*%
%TO.N,2*%
X191000000Y-128040000D03*
%TO.P,J1,16,Pin_16*%
%TO.N,15*%
X191000000Y-130580000D03*
%TO.P,J1,17,Pin_17*%
%TO.N,SD1*%
X191000000Y-133120000D03*
%TO.P,J1,18,Pin_18*%
%TO.N,SD0*%
X191000000Y-135660000D03*
%TO.P,J1,19,Pin_19*%
%TO.N,CLK*%
X191000000Y-138200000D03*
%TD*%
D13*
%TO.P,J4,1,Pin_1*%
%TO.N,3V3*%
X115000000Y-92480000D03*
D14*
%TO.P,J4,2,Pin_2*%
%TO.N,EN*%
X115000000Y-95020000D03*
%TO.P,J4,3,Pin_3*%
%TO.N,SP*%
X115000000Y-97560000D03*
%TO.P,J4,4,Pin_4*%
%TO.N,SN*%
X115000000Y-100100000D03*
%TO.P,J4,5,Pin_5*%
%TO.N,34*%
X115000000Y-102640000D03*
%TO.P,J4,6,Pin_6*%
%TO.N,35*%
X115000000Y-105180000D03*
%TO.P,J4,7,Pin_7*%
%TO.N,32*%
X115000000Y-107720000D03*
%TO.P,J4,8,Pin_8*%
%TO.N,33*%
X115000000Y-110260000D03*
%TO.P,J4,9,Pin_9*%
%TO.N,25*%
X115000000Y-112800000D03*
%TO.P,J4,10,Pin_10*%
%TO.N,26*%
X115000000Y-115340000D03*
%TO.P,J4,11,Pin_11*%
%TO.N,27*%
X115000000Y-117880000D03*
%TO.P,J4,12,Pin_12*%
%TO.N,14*%
X115000000Y-120420000D03*
%TO.P,J4,13,Pin_13*%
%TO.N,12*%
X115000000Y-122960000D03*
%TO.P,J4,14,Pin_14*%
%TO.N,GND*%
X115000000Y-125500000D03*
%TO.P,J4,15,Pin_15*%
%TO.N,13*%
X115000000Y-128040000D03*
%TO.P,J4,16,Pin_16*%
%TO.N,SD2*%
X115000000Y-130580000D03*
%TO.P,J4,17,Pin_17*%
%TO.N,SD3*%
X115000000Y-133120000D03*
%TO.P,J4,18,Pin_18*%
%TO.N,CMD*%
X115000000Y-135660000D03*
%TO.P,J4,19,Pin_19*%
%TO.N,V5*%
X115000000Y-138200000D03*
%TD*%
D13*
%TO.P,J3,1,Pin_1*%
%TO.N,3V3*%
X125000000Y-92480000D03*
D14*
%TO.P,J3,2,Pin_2*%
%TO.N,EN*%
X125000000Y-95020000D03*
%TO.P,J3,3,Pin_3*%
%TO.N,SP*%
X125000000Y-97560000D03*
%TO.P,J3,4,Pin_4*%
%TO.N,SN*%
X125000000Y-100100000D03*
%TO.P,J3,5,Pin_5*%
%TO.N,34*%
X125000000Y-102640000D03*
%TO.P,J3,6,Pin_6*%
%TO.N,35*%
X125000000Y-105180000D03*
%TO.P,J3,7,Pin_7*%
%TO.N,32*%
X125000000Y-107720000D03*
%TO.P,J3,8,Pin_8*%
%TO.N,33*%
X125000000Y-110260000D03*
%TO.P,J3,9,Pin_9*%
%TO.N,25*%
X125000000Y-112800000D03*
%TO.P,J3,10,Pin_10*%
%TO.N,26*%
X125000000Y-115340000D03*
%TO.P,J3,11,Pin_11*%
%TO.N,27*%
X125000000Y-117880000D03*
%TO.P,J3,12,Pin_12*%
%TO.N,14*%
X125000000Y-120420000D03*
%TO.P,J3,13,Pin_13*%
%TO.N,12*%
X125000000Y-122960000D03*
%TO.P,J3,14,Pin_14*%
%TO.N,GND*%
X125000000Y-125500000D03*
%TO.P,J3,15,Pin_15*%
%TO.N,13*%
X125000000Y-128040000D03*
%TO.P,J3,16,Pin_16*%
%TO.N,SD2*%
X125000000Y-130580000D03*
%TO.P,J3,17,Pin_17*%
%TO.N,SD3*%
X125000000Y-133120000D03*
%TO.P,J3,18,Pin_18*%
%TO.N,CMD*%
X125000000Y-135660000D03*
%TO.P,J3,19,Pin_19*%
%TO.N,V5*%
X125000000Y-138200000D03*
%TD*%
D13*
%TO.P,J2,1,Pin_1*%
%TO.N,3V3*%
X105000000Y-92480000D03*
D14*
%TO.P,J2,2,Pin_2*%
%TO.N,EN*%
X105000000Y-95020000D03*
%TO.P,J2,3,Pin_3*%
%TO.N,SP*%
X105000000Y-97560000D03*
%TO.P,J2,4,Pin_4*%
%TO.N,SN*%
X105000000Y-100100000D03*
%TO.P,J2,5,Pin_5*%
%TO.N,34*%
X105000000Y-102640000D03*
%TO.P,J2,6,Pin_6*%
%TO.N,35*%
X105000000Y-105180000D03*
%TO.P,J2,7,Pin_7*%
%TO.N,32*%
X105000000Y-107720000D03*
%TO.P,J2,8,Pin_8*%
%TO.N,33*%
X105000000Y-110260000D03*
%TO.P,J2,9,Pin_9*%
%TO.N,25*%
X105000000Y-112800000D03*
%TO.P,J2,10,Pin_10*%
%TO.N,26*%
X105000000Y-115340000D03*
%TO.P,J2,11,Pin_11*%
%TO.N,27*%
X105000000Y-117880000D03*
%TO.P,J2,12,Pin_12*%
%TO.N,14*%
X105000000Y-120420000D03*
%TO.P,J2,13,Pin_13*%
%TO.N,12*%
X105000000Y-122960000D03*
%TO.P,J2,14,Pin_14*%
%TO.N,GND*%
X105000000Y-125500000D03*
%TO.P,J2,15,Pin_15*%
%TO.N,13*%
X105000000Y-128040000D03*
%TO.P,J2,16,Pin_16*%
%TO.N,SD2*%
X105000000Y-130580000D03*
%TO.P,J2,17,Pin_17*%
%TO.N,SD3*%
X105000000Y-133120000D03*
%TO.P,J2,18,Pin_18*%
%TO.N,CMD*%
X105000000Y-135660000D03*
%TO.P,J2,19,Pin_19*%
%TO.N,V5*%
X105000000Y-138200000D03*
%TD*%
D13*
%TO.P,J6,1,Pin_1*%
%TO.N,GND*%
X181000000Y-92480000D03*
D14*
%TO.P,J6,2,Pin_2*%
%TO.N,23*%
X181000000Y-95020000D03*
%TO.P,J6,3,Pin_3*%
%TO.N,22*%
X181000000Y-97560000D03*
%TO.P,J6,4,Pin_4*%
%TO.N,TX*%
X181000000Y-100100000D03*
%TO.P,J6,5,Pin_5*%
%TO.N,RX*%
X181000000Y-102640000D03*
%TO.P,J6,6,Pin_6*%
%TO.N,21*%
X181000000Y-105180000D03*
%TO.P,J6,7,Pin_7*%
%TO.N,GND*%
X181000000Y-107720000D03*
%TO.P,J6,8,Pin_8*%
%TO.N,19*%
X181000000Y-110260000D03*
%TO.P,J6,9,Pin_9*%
%TO.N,18*%
X181000000Y-112800000D03*
%TO.P,J6,10,Pin_10*%
%TO.N,5*%
X181000000Y-115340000D03*
%TO.P,J6,11,Pin_11*%
%TO.N,17*%
X181000000Y-117880000D03*
%TO.P,J6,12,Pin_12*%
%TO.N,16*%
X181000000Y-120420000D03*
%TO.P,J6,13,Pin_13*%
%TO.N,4*%
X181000000Y-122960000D03*
%TO.P,J6,14,Pin_14*%
%TO.N,0*%
X181000000Y-125500000D03*
%TO.P,J6,15,Pin_15*%
%TO.N,2*%
X181000000Y-128040000D03*
%TO.P,J6,16,Pin_16*%
%TO.N,15*%
X181000000Y-130580000D03*
%TO.P,J6,17,Pin_17*%
%TO.N,SD1*%
X181000000Y-133120000D03*
%TO.P,J6,18,Pin_18*%
%TO.N,SD0*%
X181000000Y-135660000D03*
%TO.P,J6,19,Pin_19*%
%TO.N,CLK*%
X181000000Y-138200000D03*
%TD*%
D15*
%TO.N,*%
X103000000Y-52000000D03*
X133500000Y-42500000D03*
X143000000Y-73000000D03*
X112500000Y-82500000D03*
%TD*%
M02*
